<?xml version="1.0" encoding="UTF-8"?>
<svg xmlns="http://www.w3.org/2000/svg" xmlns:xlink="http://www.w3.org/1999/xlink" width="768pt" height="767.999994pt" viewBox="0 0 768 767.999994" version="1.2">
<g id="surface1">
<path style=" stroke:none;fill-rule:nonzero;fill:rgb(0%,0%,0%);fill-opacity:1;" d="M 2.734375 384.09375 C 2.734375 369.109375 14.890625 356.945312 29.871094 356.945312 L 669.910156 356.945312 L 472.003906 158.972656 C 461.394531 148.359375 461.394531 131.203125 472.003906 120.589844 C 482.613281 109.972656 499.765625 109.972656 510.375 120.589844 L 754.601562 364.898438 C 765.1875 375.488281 765.105469 392.804688 754.601562 403.3125 L 510.375 647.621094 C 499.765625 658.238281 482.613281 658.238281 472.003906 647.621094 C 461.394531 637.007812 461.394531 619.851562 472.003906 609.238281 L 669.910156 411.238281 L 29.871094 411.238281 C 14.890625 411.238281 2.734375 399.078125 2.734375 384.09375 Z M 2.734375 384.09375 "/>
</g>
</svg>
