<?xml version="1.0" encoding="UTF-8"?>
<svg xmlns="http://www.w3.org/2000/svg" xmlns:xlink="http://www.w3.org/1999/xlink" width="768pt" height="767.999994pt" viewBox="0 0 768 767.999994" version="1.2">
<defs>
<clipPath id="clip1">
  <path d="M 23.152344 352 L 744.652344 352 L 744.652344 768 L 23.152344 768 Z M 23.152344 352 "/>
</clipPath>
<clipPath id="clip2">
  <path d="M 23.152344 499 L 741 499 L 741 627 L 23.152344 627 Z M 23.152344 499 "/>
</clipPath>
</defs>
<g id="surface1">
<path style=" stroke:none;fill-rule:nonzero;fill:#a1496b;fill-opacity:1;" d="M 413.535156 209.433594 L 413.535156 104.980469 C 413.535156 83.503906 389.945312 80.160156 373.285156 83.265625 C 360.359375 85.675781 354.769531 95.59375 354.769531 107.90625 L 354.769531 209.433594 C 354.769531 215.859375 360.125 221.214844 366.546875 221.214844 L 401.757812 221.214844 C 416.945312 221.214844 416.945312 197.652344 401.757812 197.652344 L 366.546875 197.652344 L 378.324219 209.433594 L 378.324219 104.980469 C 378.324219 104.015625 377.335938 106.320312 376.285156 106.734375 C 377.648438 106.195312 378.65625 106.160156 380.117188 106.054688 C 383.445312 105.820312 387.183594 105.691406 390.464844 106.300781 C 393.636719 106.894531 390.636719 106.28125 389.929688 104.453125 C 389.996094 104.59375 389.980469 104.898438 389.980469 105.101562 L 389.980469 209.433594 C 389.980469 224.640625 413.535156 224.640625 413.535156 209.433594 "/>
<path style=" stroke:none;fill-rule:nonzero;fill:#a1496b;fill-opacity:1;" d="M 375.53125 3.804688 C 366.390625 14.070312 358.632812 25.902344 353.9375 38.84375 C 350.621094 47.96875 350.699219 57.683594 354.941406 66.425781 C 359.824219 76.464844 375.105469 83.675781 385.863281 82.246094 C 396.890625 80.785156 407.914062 76.699219 413.597656 66.449219 C 418.199219 58.128906 417.257812 47.972656 414.289062 39.296875 C 409.796875 26.203125 401.347656 14.070312 392.175781 3.804688 C 382.046875 -7.554688 365.449219 9.167969 375.53125 20.464844 C 380.523438 26.066406 384.308594 31.335938 388.957031 39.929688 C 390.558594 42.863281 391.125 44.273438 391.988281 46.777344 C 393.355469 50.773438 393.339844 50.699219 393.230469 54.238281 C 393.308594 51.808594 393.023438 54.878906 392.882812 55.386719 C 393.167969 54.386719 393.167969 55.023438 392.492188 55.753906 C 391.234375 57.128906 387.828125 58.09375 384.625 58.78125 C 383.320312 59.0625 379.15625 57.632812 376.925781 56.355469 C 375.074219 55.289062 375.609375 55.398438 375.246094 54.246094 C 375.042969 53.582031 375.042969 51.171875 375.246094 50.046875 C 375.828125 46.992188 377.164062 43.617188 378.042969 41.75 C 380.726562 36.039062 384.261719 30.707031 387.984375 25.625 C 388.234375 25.292969 390.355469 22.550781 388.519531 24.894531 C 389.144531 24.089844 389.789062 23.300781 390.433594 22.515625 C 391 21.820312 391.582031 21.132812 392.175781 20.464844 C 402.242188 9.15625 385.644531 -7.570312 375.53125 3.804688 "/>
<path style=" stroke:none;fill-rule:nonzero;fill:#a1496b;fill-opacity:1;" d="M 529.3125 209.433594 L 529.3125 104.980469 C 529.3125 83.503906 505.738281 80.160156 489.0625 83.265625 C 476.136719 85.675781 470.546875 95.59375 470.546875 107.90625 L 470.546875 209.433594 C 470.546875 215.859375 475.902344 221.214844 482.324219 221.214844 L 517.535156 221.214844 C 532.722656 221.214844 532.722656 197.652344 517.535156 197.652344 L 482.324219 197.652344 L 494.101562 209.433594 L 494.101562 104.980469 C 494.101562 104.015625 493.113281 106.320312 492.046875 106.734375 C 493.425781 106.195312 494.433594 106.160156 495.894531 106.054688 C 499.222656 105.820312 502.960938 105.691406 506.242188 106.300781 C 509.414062 106.894531 506.414062 106.28125 505.707031 104.453125 C 505.769531 104.59375 505.753906 104.898438 505.753906 105.101562 L 505.753906 209.433594 C 505.753906 224.640625 529.3125 224.640625 529.3125 209.433594 "/>
<path style=" stroke:none;fill-rule:nonzero;fill:#a1496b;fill-opacity:1;" d="M 491.292969 3.804688 C 482.167969 14.070312 474.410156 25.902344 469.710938 38.84375 C 466.398438 47.96875 466.476562 57.683594 470.71875 66.425781 C 475.585938 76.464844 490.882812 83.675781 501.640625 82.246094 C 512.664062 80.785156 523.691406 76.699219 529.375 66.449219 C 533.976562 58.128906 533.035156 47.972656 530.066406 39.296875 C 525.589844 26.203125 517.125 14.070312 507.953125 3.804688 C 497.824219 -7.554688 481.222656 9.167969 491.292969 20.464844 C 496.300781 26.066406 500.101562 31.335938 504.75 39.929688 C 506.320312 42.863281 506.917969 44.273438 507.765625 46.777344 C 509.132812 50.773438 509.101562 50.699219 509.023438 54.238281 C 509.070312 51.808594 508.800781 54.878906 508.660156 55.386719 C 508.945312 54.386719 508.945312 55.023438 508.285156 55.753906 C 507.027344 57.128906 503.605469 58.09375 500.398438 58.78125 C 499.097656 59.0625 494.933594 57.632812 492.703125 56.355469 C 490.851562 55.289062 491.386719 55.398438 491.023438 54.246094 C 490.820312 53.582031 490.820312 51.171875 491.023438 50.046875 C 491.605469 46.992188 492.941406 43.617188 493.820312 41.75 C 496.503906 36.039062 500.039062 30.707031 503.777344 25.625 C 504.011719 25.292969 506.132812 22.550781 504.3125 24.894531 C 504.921875 24.089844 505.566406 23.300781 506.210938 22.515625 C 506.777344 21.820312 507.359375 21.132812 507.953125 20.464844 C 518.019531 9.15625 501.421875 -7.570312 491.292969 3.804688 "/>
<path style=" stroke:none;fill-rule:nonzero;fill:#a1496b;fill-opacity:1;" d="M 294.445312 209.433594 L 294.445312 104.980469 C 294.445312 83.503906 270.855469 80.160156 254.191406 83.265625 C 241.269531 85.675781 235.675781 95.59375 235.675781 107.90625 L 235.675781 209.433594 C 235.675781 215.859375 241.046875 221.214844 247.457031 221.214844 L 282.667969 221.214844 C 297.867188 221.214844 297.867188 197.652344 282.667969 197.652344 L 247.457031 197.652344 L 259.234375 209.433594 L 259.234375 104.980469 C 259.234375 104.015625 258.246094 106.320312 257.191406 106.734375 C 258.558594 106.195312 259.5625 106.160156 261.023438 106.054688 C 264.355469 105.820312 268.09375 105.691406 271.375 106.300781 C 274.546875 106.894531 271.546875 106.28125 270.839844 104.453125 C 270.902344 104.59375 270.886719 104.898438 270.886719 105.101562 L 270.886719 209.433594 C 270.886719 224.640625 294.445312 224.640625 294.445312 209.433594 "/>
<path style=" stroke:none;fill-rule:nonzero;fill:#a1496b;fill-opacity:1;" d="M 256.4375 3.804688 C 247.300781 14.070312 239.539062 25.902344 234.84375 38.84375 C 231.53125 47.96875 231.609375 57.683594 235.851562 66.425781 C 240.71875 76.464844 256.015625 83.675781 266.773438 82.246094 C 277.796875 80.785156 288.824219 76.699219 294.507812 66.449219 C 299.109375 58.128906 298.167969 47.972656 295.199219 39.296875 C 290.722656 26.203125 282.257812 14.070312 273.085938 3.804688 C 262.957031 -7.554688 246.355469 9.167969 256.4375 20.464844 C 261.433594 26.066406 265.234375 31.335938 269.882812 39.929688 C 271.46875 42.863281 272.035156 44.273438 272.898438 46.777344 C 274.265625 50.773438 274.25 50.699219 274.136719 54.238281 C 274.21875 51.808594 273.933594 54.878906 273.792969 55.386719 C 274.074219 54.386719 274.089844 55.023438 273.417969 55.753906 C 272.160156 57.128906 268.734375 58.09375 265.53125 58.78125 C 264.214844 59.0625 260.066406 57.632812 257.835938 56.355469 C 255.96875 55.289062 256.519531 55.398438 256.15625 54.246094 C 255.9375 53.582031 255.9375 51.171875 256.15625 50.046875 C 256.753906 46.992188 258.074219 43.617188 258.953125 41.75 C 261.636719 36.039062 265.171875 30.707031 268.894531 25.625 C 269.144531 25.292969 271.265625 22.550781 269.425781 24.894531 C 270.054688 24.089844 270.699219 23.300781 271.34375 22.515625 C 271.925781 21.820312 272.488281 21.132812 273.085938 20.464844 C 283.152344 9.15625 266.554688 -7.570312 256.4375 3.804688 "/>
<g clip-path="url(#clip1)" clip-rule="nonzero">
<path style=" stroke:none;fill-rule:nonzero;fill:#a1496b;fill-opacity:1;" d="M 109.910156 354.207031 C 76.796875 368.691406 39.066406 390.070312 26.773438 426.453125 C 22.460938 439.210938 24.0625 454.558594 24.0625 467.816406 C 24.0625 514.660156 24.0625 561.488281 24.0625 608.316406 C 24.0625 620.304688 23.097656 632.871094 25.6875 644.667969 C 30.601562 667.039062 48.722656 684.160156 66.527344 697.042969 C 91.542969 715.140625 121.421875 726.746094 150.640625 736.0625 C 189.207031 748.363281 229.222656 755.667969 269.316406 760.742188 C 360.640625 772.320312 454.777344 770.105469 545.394531 753.703125 C 581.765625 747.105469 617.917969 737.746094 652.109375 723.527344 C 677.535156 712.972656 703.023438 699.695312 722.328125 679.636719 C 735.21875 666.222656 744.234375 649.160156 744.234375 630.261719 L 744.234375 451.746094 C 744.234375 437.277344 742.175781 424.066406 734.609375 411.261719 C 718.320312 383.710938 686.707031 366.585938 658.390625 354.207031 C 652.503906 351.632812 645.796875 352.417969 642.277344 358.433594 C 639.308594 363.476562 640.613281 371.976562 646.503906 374.550781 C 665.441406 382.84375 684.273438 392.570312 699.820312 406.394531 C 709.746094 415.222656 719.359375 426.988281 720.566406 440.734375 C 721.621094 452.703125 720.675781 465.128906 720.675781 477.117188 L 720.675781 630.484375 C 720.675781 636.25 719.25 642.21875 717.066406 646.804688 C 707.816406 666.238281 687.367188 679.730469 667.800781 690.304688 C 638.054688 706.34375 605.089844 716.253906 572.34375 724.046875 C 530.425781 734.019531 487.554688 739.488281 444.585938 742.253906 C 355.757812 747.957031 264.308594 742.582031 178.070312 719.539062 C 147.09375 711.242188 116.351562 700.386719 88.882812 683.625 C 78.808594 677.484375 69.832031 670.652344 61.753906 662.027344 C 55.894531 655.773438 51.066406 647.871094 48.925781 640.457031 C 47.535156 635.652344 47.617188 633.6875 47.617188 627.84375 L 47.617188 467.816406 C 47.617188 455.1875 46.105469 441.613281 50.601562 429.59375 C 54.992188 417.84375 65.664062 408.386719 75.132812 400.785156 C 88.972656 389.664062 105.636719 381.621094 121.800781 374.550781 C 127.691406 371.976562 128.984375 363.476562 126.027344 358.433594 C 122.507812 352.417969 115.796875 351.632812 109.910156 354.207031 "/>
</g>
<path style=" stroke:none;fill-rule:nonzero;fill:#a1496b;fill-opacity:1;" d="M 357.3125 115.480469 C 343.773438 116.214844 330.285156 117.640625 316.808594 119.132812 C 310.433594 119.832031 305.03125 123.953125 305.03125 130.914062 C 305.03125 136.796875 310.417969 143.398438 316.808594 142.695312 C 330.285156 141.203125 343.773438 139.777344 357.3125 139.042969 C 372.421875 138.222656 372.5 114.652344 357.3125 115.480469 "/>
<path style=" stroke:none;fill-rule:nonzero;fill:#a1496b;fill-opacity:1;" d="M 446.5 118.589844 C 431.613281 117.058594 416.722656 115.625 401.757812 115.109375 C 386.554688 114.582031 386.601562 138.148438 401.757812 138.675781 C 416.722656 139.191406 431.613281 140.621094 446.5 142.15625 C 452.910156 142.816406 458.28125 136.300781 458.28125 130.371094 C 458.28125 123.457031 452.894531 119.246094 446.5 118.589844 "/>
<path style=" stroke:none;fill-rule:nonzero;fill:#a1496b;fill-opacity:1;" d="M 209.652344 137.527344 C 174.898438 148.078125 134.617188 163.1875 113.457031 194.714844 C 103.710938 209.246094 104.882812 225.566406 104.882812 242.09375 L 104.882812 365.410156 C 104.882812 385.972656 117.679688 402.875 133.296875 415.015625 C 158.683594 434.78125 190.101562 445.996094 220.835938 454.335938 C 307.449219 477.824219 401.757812 479.078125 490.113281 466.070312 C 527.539062 460.558594 564.679688 451.492188 599.324219 436.097656 C 621.722656 426.140625 646.441406 411.4375 657.84375 388.703125 C 664.546875 375.320312 663.433594 361.074219 663.433594 346.605469 L 663.433594 234.929688 C 663.433594 227.355469 663.667969 219.957031 662.335938 212.464844 C 659.066406 194.210938 643.992188 180.152344 629.792969 169.71875 C 608.6875 154.242188 582.867188 144.828125 558.039062 137.34375 C 543.464844 132.949219 537.277344 155.691406 551.769531 160.058594 C 571.796875 166.109375 591.332031 173.507812 609.28125 184.347656 C 620.085938 190.863281 632.746094 200.351562 637.597656 211.960938 C 642.292969 223.195312 639.875 240.097656 639.875 253.011719 L 639.875 327.550781 C 639.875 341.390625 640.769531 355.558594 639.734375 369.367188 C 639.90625 367.058594 639.027344 372.460938 638.730469 373.515625 C 638.414062 374.550781 638.039062 375.570312 637.660156 376.578125 C 638.527344 374.285156 637.097656 377.628906 637.003906 377.820312 C 634.378906 383.050781 632.558594 385.140625 628.789062 389.113281 C 620.324219 398.066406 609.753906 404.476562 598.855469 410.226562 C 567.351562 426.847656 531.371094 435.25 496.519531 441.3125 C 450.882812 449.261719 404.128906 451.335938 357.878906 449.8125 C 314.578125 448.382812 271.28125 443.105469 229.300781 432.203125 C 200.734375 424.773438 169.566406 414.578125 146.550781 395.632812 C 142.4375 392.253906 138.671875 388.453125 135.304688 384.320312 C 133.886719 382.59375 130.496094 376.214844 129.910156 374.535156 C 127.957031 368.910156 128.4375 367.796875 128.4375 361.480469 L 128.4375 233.136719 C 128.4375 221.578125 128.109375 213.390625 135.777344 203.792969 C 154.667969 180.105469 188.058594 168.699219 215.921875 160.25 C 230.414062 155.851562 224.226562 133.101562 209.652344 137.527344 "/>
<path style=" stroke:none;fill-rule:nonzero;fill:#a1496b;fill-opacity:1;" d="M 313.964844 322.144531 C 394.21875 329.765625 478.335938 326.027344 556.105469 303.546875 C 582.820312 295.832031 610.289062 285.433594 632.621094 268.5 C 648.96875 256.121094 663.105469 239.328125 663.433594 217.835938 C 663.652344 202.632812 640.097656 202.664062 639.875 217.835938 C 639.78125 223.601562 637.945312 228.753906 633.359375 235.414062 C 629.667969 240.804688 621.3125 247.984375 614.558594 252.585938 C 592.589844 267.589844 566.675781 276.339844 541.21875 283.25 C 467.9375 303.121094 389.226562 305.730469 313.964844 298.582031 C 298.84375 297.136719 298.984375 320.714844 313.964844 322.144531 "/>
<path style=" stroke:none;fill-rule:nonzero;fill:#a1496b;fill-opacity:1;" d="M 244.410156 311.621094 C 256.03125 314.070312 267.714844 316.144531 279.460938 317.902344 C 285.808594 318.847656 292.105469 316.410156 293.957031 309.671875 C 295.496094 304.046875 292.089844 296.132812 285.730469 295.171875 C 273.980469 293.429688 262.296875 291.355469 250.675781 288.90625 C 235.851562 285.777344 229.535156 308.496094 244.410156 311.621094 "/>
<path style=" stroke:none;fill-rule:nonzero;fill:#a1496b;fill-opacity:1;" d="M 104.882812 217.835938 C 105.828125 262.890625 159.988281 285.84375 195.628906 298.300781 C 210.015625 303.324219 216.140625 280.546875 201.894531 275.582031 C 183.003906 268.96875 163.664062 260.863281 147.84375 248.328125 C 138.179688 240.679688 128.695312 230.121094 128.4375 217.835938 C 128.113281 202.664062 104.554688 202.632812 104.882812 217.835938 "/>
<g clip-path="url(#clip2)" clip-rule="nonzero">
<path style=" stroke:none;fill-rule:nonzero;fill:#a1496b;fill-opacity:1;" d="M 23.570312 510.859375 C 23.449219 522.71875 27.054688 535.066406 32.578125 545.464844 C 44.484375 567.835938 68.890625 577.023438 93.183594 576.113281 C 113.378906 575.359375 132.488281 567.742188 152.480469 565.433594 C 167.164062 563.734375 182.09375 563.972656 196.320312 568.164062 C 211.382812 572.609375 219.234375 580.921875 231.40625 591.855469 C 249.214844 607.832031 267.984375 621.621094 292.292969 625.378906 C 310.875 628.253906 329.4375 625.363281 346.867188 618.574219 C 357.738281 614.367188 367.582031 608.363281 377.996094 603.226562 C 388.25 598.167969 399.246094 594.699219 410.394531 592.214844 C 426.195312 588.726562 442.96875 588.679688 458.828125 591.714844 C 464.640625 592.828125 470.355469 594.414062 475.964844 596.300781 C 478.195312 597.023438 480.390625 597.871094 482.558594 598.71875 C 482.96875 598.875 486.140625 600.210938 483.359375 599.035156 C 484.351562 599.457031 485.339844 599.898438 486.3125 600.335938 C 501.640625 607.265625 516.277344 614.820312 532.988281 618.074219 C 553.421875 622.03125 573.648438 619.878906 592.558594 611.160156 C 604.007812 605.867188 614.058594 597.320312 622.476562 588.054688 C 632.101562 577.464844 639.53125 565.558594 651.246094 556.917969 C 665.460938 546.421875 684.148438 541.648438 700.214844 544.128906 C 706.371094 545.074219 712.386719 546.847656 718.148438 549.140625 C 715.007812 547.882812 719.800781 549.925781 720.742188 550.398438 C 721.386719 550.726562 722.03125 551.058594 722.640625 551.433594 C 735.738281 559.195312 747.597656 538.820312 734.53125 531.074219 C 719.957031 522.4375 701.203125 519.011719 684.511719 520.175781 C 668.191406 521.320312 652.691406 527.210938 639.359375 536.574219 C 621.800781 548.890625 611.65625 567.503906 595.699219 581.3125 C 574.199219 599.929688 545.347656 599.175781 520.078125 589.984375 C 515.632812 588.382812 514.519531 587.847656 509.699219 585.523438 C 507.214844 584.34375 504.8125 583.027344 502.347656 581.878906 C 495.359375 578.628906 488.292969 575.59375 481.003906 573.160156 C 447.945312 562.132812 411.589844 564.488281 379.363281 577.085938 C 358.363281 585.289062 340.429688 598.375 317.832031 602.316406 C 304.386719 604.65625 289.828125 602.300781 277.53125 596.550781 C 262.359375 589.433594 251.617188 578.675781 239.179688 567.066406 C 222.28125 551.277344 202.039062 543.28125 179.078125 541.285156 C 154.15625 539.117188 130.445312 545.9375 106.34375 550.917969 C 90.667969 554.136719 74.351562 553.554688 61.894531 544.679688 C 55.839844 540.359375 51.277344 531.640625 49.027344 523.535156 C 48.464844 521.539062 48.042969 519.515625 47.675781 517.503906 C 46.953125 513.511719 47.769531 519.421875 47.355469 515.179688 C 47.214844 513.75 47.109375 512.289062 47.128906 510.859375 C 47.277344 495.652344 23.71875 495.667969 23.574219 510.859375 "/>
</g>
</g>
</svg>
