<?xml version="1.0" encoding="UTF-8"?>
<svg xmlns="http://www.w3.org/2000/svg" xmlns:xlink="http://www.w3.org/1999/xlink" width="768pt" height="767.999994pt" viewBox="0 0 768 767.999994" version="1.2">
<g id="surface1">
<path style="fill-rule:nonzero;fill:#a1496b;fill-opacity:1;" d="M 729.332031 432.800781 L 399.230469 192.695312 L 399.230469 93.425781 L 445.105469 93.425781 C 453.558594 93.425781 460.394531 86.574219 460.394531 78.128906 C 460.394531 69.6875 453.558594 62.835938 445.105469 62.835938 L 399.230469 62.835938 L 399.230469 16.957031 C 399.230469 8.515625 392.382812 1.664062 383.941406 1.664062 C 375.5 1.664062 368.648438 8.515625 368.648438 16.957031 L 368.648438 62.835938 L 322.777344 62.835938 C 314.335938 62.835938 307.484375 69.6875 307.484375 78.128906 C 307.484375 86.574219 314.335938 93.425781 322.777344 93.425781 L 368.648438 93.425781 L 368.648438 192.695312 L 38.550781 432.800781 C 33.195312 436.703125 30.949219 443.597656 33 449.898438 C 35.046875 456.199219 40.917969 460.46875 47.539062 460.46875 L 123.996094 460.46875 L 123.996094 751.042969 C 123.996094 759.5 130.84375 766.335938 139.285156 766.335938 L 322.777344 766.335938 C 331.21875 766.335938 338.066406 759.5 338.066406 751.042969 L 338.066406 567.523438 C 338.066406 542.226562 358.648438 521.640625 383.941406 521.640625 C 409.230469 521.640625 429.8125 542.226562 429.8125 567.523438 L 429.8125 751.042969 C 429.8125 759.5 436.648438 766.335938 445.105469 766.335938 L 628.597656 766.335938 C 637.050781 766.335938 643.886719 759.5 643.886719 751.042969 L 643.886719 460.46875 L 720.339844 460.46875 C 726.976562 460.46875 732.835938 456.199219 734.882812 449.914062 C 736.933594 443.597656 734.683594 436.703125 729.332031 432.800781 Z M 628.597656 429.878906 C 620.140625 429.878906 613.304688 436.714844 613.304688 445.175781 L 613.304688 735.75 L 460.394531 735.75 L 460.394531 567.523438 C 460.394531 525.359375 426.097656 491.054688 383.941406 491.054688 C 341.785156 491.054688 307.484375 525.359375 307.484375 567.523438 L 307.484375 735.75 L 154.578125 735.75 L 154.578125 445.175781 C 154.578125 436.714844 147.726562 429.878906 139.285156 429.878906 L 94.558594 429.878906 L 383.941406 219.382812 L 673.320312 429.878906 Z M 628.597656 429.878906 "/>
</g>
</svg>
