<?xml version="1.0" encoding="UTF-8"?>
<svg xmlns="http://www.w3.org/2000/svg" xmlns:xlink="http://www.w3.org/1999/xlink" width="768pt" height="767.999994pt" viewBox="0 0 768 767.999994" version="1.2">
<defs>
<clipPath id="clip1">
  <path d="M 656.035156 116 L 768 116 L 768 652.65625 L 656.035156 652.65625 Z M 656.035156 116 "/>
</clipPath>
<clipPath id="clip2">
  <path d="M 0 116 L 137 116 L 137 652.65625 L 0 652.65625 Z M 0 116 "/>
</clipPath>
<clipPath id="clip3">
  <path d="M 38 115.679688 L 60 115.679688 L 60 240 L 38 240 Z M 38 115.679688 "/>
</clipPath>
<clipPath id="clip4">
  <path d="M 77 115.679688 L 99 115.679688 L 99 240 L 77 240 Z M 77 115.679688 "/>
</clipPath>
</defs>
<g id="surface1">
<path style=" stroke:none;fill-rule:nonzero;fill:#a1496b;fill-opacity:1;" d="M 384 618.765625 C 254.742188 618.765625 149.578125 513.535156 149.578125 384.183594 C 149.578125 254.835938 254.742188 149.601562 384 149.601562 C 513.257812 149.601562 618.421875 254.835938 618.421875 384.183594 C 618.421875 513.535156 513.257812 618.765625 384 618.765625 Z M 384 128.59375 C 243.164062 128.59375 128.582031 243.25 128.582031 384.183594 C 128.582031 525.113281 243.164062 639.773438 384 639.773438 C 524.835938 639.773438 639.417969 525.113281 639.417969 384.183594 C 639.417969 243.25 524.835938 128.59375 384 128.59375 "/>
<path style=" stroke:none;fill-rule:nonzero;fill:#a1496b;fill-opacity:1;" d="M 384 544.507812 C 295.660156 544.507812 223.785156 472.589844 223.785156 384.183594 C 223.785156 295.785156 295.660156 223.859375 384 223.859375 C 472.339844 223.859375 544.214844 295.785156 544.214844 384.183594 C 544.214844 472.589844 472.339844 544.507812 384 544.507812 Z M 384 202.851562 C 284.085938 202.851562 202.789062 284.199219 202.789062 384.183594 C 202.789062 484.171875 284.085938 565.515625 384 565.515625 C 483.914062 565.515625 565.210938 484.171875 565.210938 384.183594 C 565.210938 284.199219 483.914062 202.851562 384 202.851562 "/>
<g clip-path="url(#clip1)" clip-rule="nonzero">
<path style=" stroke:none;fill-rule:nonzero;fill:#a1496b;fill-opacity:1;" d="M 747.007812 622.820312 C 747.007812 627.6875 743.050781 631.648438 738.183594 631.648438 C 733.320312 631.648438 729.363281 627.6875 729.363281 622.820312 L 729.363281 425.464844 C 729.363281 422.382812 728.007812 419.453125 725.660156 417.457031 C 696.609375 392.792969 677.84375 340.546875 677.84375 284.363281 C 677.84375 212.402344 707.988281 150.980469 747.007812 139.101562 Z M 764.707031 118.984375 C 762.609375 117.003906 759.804688 115.976562 756.902344 116.132812 C 700.796875 119.355469 656.851562 193.25 656.851562 284.363281 C 656.851562 345.09375 676.484375 400.339844 708.367188 430.171875 L 708.367188 622.820312 C 708.367188 639.273438 721.742188 652.65625 738.183594 652.65625 C 754.625 652.65625 768 639.273438 768 622.820312 L 768 126.625 C 768 123.730469 766.8125 120.96875 764.707031 118.984375 "/>
</g>
<g clip-path="url(#clip2)" clip-rule="nonzero">
<path style=" stroke:none;fill-rule:nonzero;fill:#a1496b;fill-opacity:1;" d="M 136.90625 261.542969 L 136.90625 126.625 C 136.90625 120.816406 132.210938 116.121094 126.410156 116.121094 C 120.613281 116.121094 115.914062 120.816406 115.914062 126.625 L 115.914062 258.363281 L 79.039062 313.714844 C 77.890625 315.445312 77.277344 317.46875 77.277344 319.539062 L 77.277344 622.820312 C 77.277344 627.6875 73.320312 631.648438 68.453125 631.648438 C 63.585938 631.648438 59.632812 627.6875 59.632812 622.820312 L 59.632812 319.539062 C 59.632812 317.46875 59.015625 315.445312 57.867188 313.714844 L 20.992188 258.363281 L 20.992188 126.625 C 20.992188 120.816406 16.292969 116.121094 10.496094 116.121094 C 4.703125 116.121094 0 120.816406 0 126.625 L 0 261.542969 C 0 263.621094 0.613281 265.648438 1.761719 267.371094 L 38.636719 322.71875 L 38.636719 622.820312 C 38.636719 639.273438 52.011719 652.65625 68.453125 652.65625 C 84.894531 652.65625 98.269531 639.273438 98.269531 622.820312 L 98.269531 322.71875 L 135.144531 267.371094 C 136.292969 265.648438 136.90625 263.617188 136.90625 261.542969 "/>
</g>
<g clip-path="url(#clip3)" clip-rule="nonzero">
<path style=" stroke:none;fill-rule:nonzero;fill:#a1496b;fill-opacity:1;" d="M 49.132812 239.832031 C 54.9375 239.832031 59.632812 235.128906 59.632812 229.328125 L 59.632812 126.21875 C 59.632812 120.421875 54.9375 115.714844 49.132812 115.714844 C 43.339844 115.714844 38.636719 120.421875 38.636719 126.21875 L 38.636719 229.328125 C 38.636719 235.128906 43.339844 239.832031 49.132812 239.832031 "/>
</g>
<g clip-path="url(#clip4)" clip-rule="nonzero">
<path style=" stroke:none;fill-rule:nonzero;fill:#a1496b;fill-opacity:1;" d="M 87.773438 239.832031 C 93.566406 239.832031 98.269531 235.128906 98.269531 229.328125 L 98.269531 126.21875 C 98.269531 120.421875 93.566406 115.714844 87.773438 115.714844 C 81.976562 115.714844 77.277344 120.421875 77.277344 126.21875 L 77.277344 229.328125 C 77.277344 235.128906 81.976562 239.832031 87.773438 239.832031 "/>
</g>
</g>
</svg>
