<?xml version="1.0" encoding="UTF-8"?>
<svg xmlns="http://www.w3.org/2000/svg" xmlns:xlink="http://www.w3.org/1999/xlink" width="768pt" height="767.999994pt" viewBox="0 0 768 767.999994" version="1.2">
<g id="surface1">
<path style=" stroke:none;fill-rule:nonzero;fill:rgb(0%,0%,0%);fill-opacity:1;" d="M 429.394531 423.449219 C 490.304688 424.234375 552.347656 375.0625 537.886719 311.808594 C 510.453125 184.765625 537.207031 103.78125 537.46875 103 C 541.335938 92.828125 529.921875 82.152344 520.023438 86.984375 C 519.292969 87.308594 505.574219 93.488281 485.652344 104.894531 C 485.683594 85.859375 487.628906 71.015625 489.566406 60.984375 C 493.167969 44.773438 474.335938 30.773438 459.871094 39.25 C 451.375 43.878906 443.550781 48.648438 436.070312 53.53125 C 429.625 30.59375 414.402344 2.925781 391.324219 2.925781 C 368.34375 2.925781 353.160156 30.359375 346.671875 53.597656 C 339.140625 48.675781 331.265625 43.878906 322.695312 39.203125 C 308.351562 30.917969 289.433594 44.707031 293.089844 60.980469 C 295.253906 72.597656 297.351562 90 296.914062 112.1875 C 270.59375 96.246094 251.25 87.4375 250.269531 86.996094 C 240.476562 82.269531 228.898438 92.667969 232.785156 102.964844 C 233.054688 103.765625 259.6875 184.761719 232.382812 311.816406 C 215.140625 386.90625 305.078125 440.492188 372.226562 418.621094 C 372.226562 418.621094 372.226562 540.160156 372.226562 540.160156 C 352.101562 502.722656 274.773438 501.195312 270.972656 502.753906 C 264.175781 503.113281 258.828125 508.703125 258.75 515.515625 C 258.726562 518.027344 258.449219 577.320312 288.597656 606.25 C 312.648438 629.339844 354.507812 632.359375 372.226562 632.5625 C 372.21875 658.199219 372.230469 725.859375 372.226562 752.15625 C 372.226562 759.289062 378.003906 765.074219 385.132812 765.074219 C 392.257812 765.074219 398.035156 759.289062 398.035156 752.15625 C 398.035156 752.15625 398.035156 683.324219 398.035156 683.324219 C 485.390625 681.503906 505.140625 627.285156 506.332031 566.386719 C 506.257812 559.578125 500.910156 553.988281 494.109375 553.628906 C 492.332031 552.808594 422.707031 552.078125 398.035156 584.265625 C 398.035156 584.265625 398.035156 418.664062 398.035156 418.664062 C 408.121094 421.722656 418.578125 423.449219 429.394531 423.449219 Z M 512.660156 317.265625 C 517.441406 339.464844 508.992188 355.847656 501.066406 365.679688 C 452.277344 423.671875 346.710938 398.300781 346.417969 314.539062 C 348.867188 234.296875 417.335938 178.796875 480.378906 138.152344 C 489.894531 132.179688 498.675781 127.109375 506.136719 123.007812 C 499.488281 158.828125 493.105469 226.710938 512.660156 317.265625 Z M 462.339844 67.527344 C 460.488281 80.875 459.171875 98.699219 460.191406 120.347656 C 435.460938 136.648438 411.425781 154.144531 390.480469 174.847656 C 385.316406 180.34375 385.058594 180.753906 379.894531 174.902344 C 372.816406 170.398438 375.019531 164.789062 377.078125 157.714844 C 390.058594 116.847656 426.015625 89.835938 462.339844 67.527344 Z M 391.324219 28.765625 C 397.96875 28.765625 410.996094 52.128906 413.394531 69.640625 C 405.734375 75.730469 398.289062 82.125 391.324219 88.875 C 384.3125 82.117188 376.929688 75.726562 369.257812 69.640625 C 371.660156 52.136719 384.675781 28.765625 391.324219 28.765625 Z M 348.332031 86.207031 C 387.792969 114.1875 368.214844 106.320312 355.007812 142.347656 C 353.03125 146.433594 353.46875 153.082031 348.554688 147.636719 C 339.996094 140.867188 331.042969 134.527344 322.066406 128.273438 C 323.730469 103.289062 322.335938 82.707031 320.261719 67.503906 C 330.378906 73.445312 339.605469 79.597656 348.332031 86.207031 Z M 269.203125 365.738281 C 261.269531 355.902344 252.820312 339.507812 257.609375 317.257812 C 277.070312 226.710938 270.722656 158.839844 264.105469 123.027344 C 291.753906 137.988281 328.933594 162.839844 352.601562 184.597656 C 358.433594 191.789062 373.203125 197.292969 362.484375 205.464844 C 318.191406 258.113281 299.5 346.023438 357.121094 396.03125 C 325.261719 402.320312 287.949219 388.988281 269.203125 365.738281 Z M 285.175781 528.609375 C 303.269531 529.472656 330.675781 533.742188 344.933594 547.414062 C 351.773438 553.984375 356.550781 563.664062 359.90625 573.933594 C 344.453125 560.820312 331.105469 555.792969 330.179688 555.457031 C 314.265625 549.820312 305.582031 573.960938 321.425781 579.769531 C 321.648438 579.847656 338.863281 586.429688 355.0625 605.597656 C 305.386719 601.648438 289.035156 574.457031 285.175781 528.609375 Z M 420.148438 598.296875 C 434.359375 584.664062 461.804688 580.398438 479.925781 579.503906 C 476.121094 625.289062 459.667969 652.519531 410.070312 656.464844 C 426.078125 637.664062 443.230469 630.8125 443.714844 630.625 C 450.378906 628.183594 453.828125 620.804688 451.421875 614.113281 C 442.855469 597.191406 427.222656 607.972656 405.171875 624.824219 C 408.523438 614.546875 413.3125 604.871094 420.148438 598.296875 Z M 420.148438 598.296875 "/>
</g>
</svg>
