<?xml version="1.0" encoding="UTF-8"?>
<svg xmlns="http://www.w3.org/2000/svg" xmlns:xlink="http://www.w3.org/1999/xlink" width="768pt" height="767.999994pt" viewBox="0 0 768 767.999994" version="1.2">
<defs>
<clipPath id="clip1">
  <path d="M 5.761719 148 L 323 148 L 323 350 L 5.761719 350 Z M 5.761719 148 "/>
</clipPath>
<clipPath id="clip2">
  <path d="M 445 148 L 762.511719 148 L 762.511719 350 L 445 350 Z M 445 148 "/>
</clipPath>
</defs>
<g id="surface1">
<path style=" stroke:none;fill-rule:nonzero;fill:rgb(67.059326%,37.249756%,38.819885%);fill-opacity:1;" d="M 232.691406 29.90625 C 183.523438 29.90625 164.449219 58.027344 162.988281 84.34375 C 161.410156 112.996094 179.953125 144.253906 218.476562 148.539062 C 281.628906 155.585938 338.433594 145.753906 364.554688 139.914062 C 351.566406 107.0625 312.546875 29.90625 232.691406 29.90625 Z M 264.253906 180.960938 C 248.664062 180.960938 232.167969 180.183594 215.144531 178.296875 C 158.746094 172.027344 130.785156 124.351562 133.097656 82.675781 C 135.378906 41.503906 167.054688 -0.0351562 232.691406 -0.0351562 C 356.570312 -0.0351562 396.871094 140.460938 398.511719 146.449219 C 400.703125 154.28125 396.207031 162.425781 388.421875 164.769531 C 385.789062 165.566406 333.785156 180.960938 264.253906 180.960938 "/>
<path style=" stroke:none;fill-rule:nonzero;fill:rgb(67.059326%,37.249756%,38.819885%);fill-opacity:1;" d="M 403.632812 139.914062 C 429.785156 145.769531 486.644531 155.628906 549.714844 148.539062 C 588.230469 144.253906 606.78125 112.996094 605.199219 84.324219 C 603.738281 58.027344 584.660156 29.90625 535.492188 29.90625 C 455.640625 29.90625 416.617188 107.0625 403.632812 139.914062 Z M 503.933594 180.960938 C 434.375 180.960938 382.398438 165.566406 379.765625 164.769531 C 371.984375 162.425781 367.480469 154.28125 369.671875 146.449219 C 371.3125 140.460938 411.621094 -0.0351562 535.492188 -0.0351562 C 601.132812 -0.0351562 632.808594 41.503906 635.089844 82.660156 C 637.398438 124.34375 609.433594 172.027344 553.042969 178.296875 C 536.019531 180.183594 519.523438 180.960938 503.933594 180.960938 "/>
<g clip-path="url(#clip1)" clip-rule="nonzero">
<path style=" stroke:none;fill-rule:nonzero;fill:rgb(67.059326%,37.249756%,38.819885%);fill-opacity:1;" d="M 307.664062 349.921875 L 20.714844 349.921875 C 12.4375 349.921875 5.738281 343.230469 5.738281 334.957031 L 5.738281 163.414062 C 5.738281 155.140625 12.4375 148.449219 20.714844 148.449219 L 216.8125 148.449219 C 225.089844 148.449219 231.785156 155.140625 231.785156 163.414062 C 231.785156 171.699219 225.089844 178.386719 216.8125 178.386719 L 35.691406 178.386719 L 35.691406 319.984375 L 307.664062 319.984375 C 315.941406 319.984375 322.636719 326.671875 322.636719 334.957031 C 322.636719 343.230469 315.941406 349.921875 307.664062 349.921875 "/>
</g>
<g clip-path="url(#clip2)" clip-rule="nonzero">
<path style=" stroke:none;fill-rule:nonzero;fill:rgb(67.059326%,37.249756%,38.819885%);fill-opacity:1;" d="M 747.46875 349.921875 L 460.527344 349.921875 C 452.25 349.921875 445.546875 343.230469 445.546875 334.957031 C 445.546875 326.671875 452.25 319.984375 460.527344 319.984375 L 732.5 319.984375 L 732.5 178.386719 L 551.378906 178.386719 C 543.101562 178.386719 536.398438 171.699219 536.398438 163.414062 C 536.398438 155.140625 543.101562 148.449219 551.378906 148.449219 L 747.46875 148.449219 C 755.746094 148.449219 762.449219 155.140625 762.449219 163.414062 L 762.449219 334.957031 C 762.449219 343.230469 755.746094 349.921875 747.46875 349.921875 "/>
</g>
<path style=" stroke:none;fill-rule:nonzero;fill:rgb(67.059326%,37.249756%,38.819885%);fill-opacity:1;" d="M 307.664062 767.953125 C 299.382812 767.953125 292.683594 761.25 292.683594 752.976562 L 292.683594 165.960938 C 292.683594 157.6875 299.382812 150.996094 307.664062 150.996094 C 315.941406 150.996094 322.636719 157.6875 322.636719 165.960938 L 322.636719 752.976562 C 322.636719 761.25 315.941406 767.953125 307.664062 767.953125 "/>
<path style=" stroke:none;fill-rule:nonzero;fill:rgb(67.059326%,37.249756%,38.819885%);fill-opacity:1;" d="M 460.527344 767.953125 C 452.25 767.953125 445.546875 761.25 445.546875 752.976562 L 445.546875 165.960938 C 445.546875 157.6875 452.25 150.996094 460.527344 150.996094 C 468.804688 150.996094 475.5 157.6875 475.5 165.960938 L 475.5 752.976562 C 475.5 761.25 468.804688 767.953125 460.527344 767.953125 "/>
<path style=" stroke:none;fill-rule:nonzero;fill:rgb(67.059326%,37.249756%,38.819885%);fill-opacity:1;" d="M 707.105469 767.953125 L 61.082031 767.953125 C 52.800781 767.953125 46.105469 761.25 46.105469 752.976562 L 46.105469 334.957031 C 46.105469 326.671875 52.800781 319.984375 61.082031 319.984375 C 69.359375 319.984375 76.058594 326.671875 76.058594 334.957031 L 76.058594 738.007812 L 692.132812 738.007812 L 692.132812 334.957031 C 692.132812 326.671875 698.828125 319.984375 707.105469 319.984375 C 715.382812 319.984375 722.082031 326.671875 722.082031 334.957031 L 722.082031 752.976562 C 722.082031 761.25 715.382812 767.953125 707.105469 767.953125 "/>
</g>
</svg>
