<?xml version="1.0" encoding="UTF-8"?>
<svg xmlns="http://www.w3.org/2000/svg" xmlns:xlink="http://www.w3.org/1999/xlink" width="768pt" height="767.999994pt" viewBox="0 0 768 767.999994" version="1.2">
<g id="surface1">
<path style=" stroke:none;fill-rule:nonzero;fill:#a1496b;fill-opacity:1;" d="M 216.792969 473.246094 C 213.714844 473.246094 210.640625 472.988281 207.304688 472.734375 C 151.917969 467.101562 112.175781 411.785156 118.585938 349.554688 C 118.585938 349.300781 118.585938 349.042969 118.585938 348.53125 L 164.484375 98.335938 C 165.507812 92.445312 171.152344 88.347656 177.046875 88.863281 L 315 102.945312 C 320.898438 103.457031 325.515625 108.582031 325.257812 114.726562 L 319.359375 369.019531 C 319.359375 369.273438 319.359375 369.53125 319.359375 370.042969 C 316.28125 400.003906 303.207031 426.894531 282.4375 446.355469 C 263.460938 463.769531 240.640625 473.246094 216.792969 473.246094 Z M 141.40625 352.375 C 136.535156 401.796875 167.046875 445.332031 209.613281 449.6875 C 230.125 451.734375 250.128906 444.5625 266.539062 429.457031 C 283.207031 414.089844 293.71875 392.324219 296.28125 368.25 L 301.921875 124.96875 L 185.253906 112.933594 Z M 141.40625 352.375 "/>
<path style=" stroke:none;fill-rule:nonzero;fill:#a1496b;fill-opacity:1;" d="M 178.84375 761.597656 C 178.332031 761.597656 178.074219 761.597656 177.5625 761.597656 C 171.152344 760.828125 166.535156 755.195312 167.304688 749.050781 L 197.050781 460.183594 C 197.816406 453.785156 203.460938 449.171875 209.613281 449.941406 C 216.023438 450.710938 220.640625 456.34375 219.871094 462.488281 L 190.125 751.355469 C 189.613281 757.246094 184.742188 761.597656 178.84375 761.597656 Z M 178.84375 761.597656 "/>
<path style=" stroke:none;fill-rule:nonzero;fill:#a1496b;fill-opacity:1;" d="M 241.410156 768 C 240.894531 768 240.640625 768 240.128906 768 L 115.25 755.195312 C 108.839844 754.425781 104.226562 748.792969 104.996094 742.648438 C 105.765625 736.246094 111.40625 731.636719 117.558594 732.402344 L 242.433594 745.207031 C 248.84375 745.976562 253.460938 751.609375 252.691406 757.757812 C 252.179688 763.648438 247.308594 768 241.410156 768 Z M 241.410156 768 "/>
<path style=" stroke:none;fill-rule:nonzero;fill:#a1496b;fill-opacity:1;" d="M 194.226562 412.808594 C 192.175781 412.808594 190.125 412.296875 188.074219 411.015625 C 147.816406 385.664062 177.5625 278.109375 183.972656 256.855469 C 185.765625 250.707031 192.175781 247.378906 198.332031 249.171875 C 204.484375 250.964844 207.820312 257.367188 206.023438 263.511719 C 190.125 316.777344 183.457031 381.054688 200.382812 391.554688 C 205.765625 394.882812 207.304688 402.054688 203.972656 407.433594 C 201.921875 410.761719 198.074219 412.808594 194.226562 412.808594 Z M 194.226562 412.808594 "/>
<path style=" stroke:none;fill-rule:nonzero;fill:#a1496b;fill-opacity:1;" d="M 461.671875 386.433594 C 418.851562 386.433594 376.796875 356.984375 359.105469 310.121094 C 359.105469 309.863281 358.847656 309.605469 358.847656 309.351562 L 287.820312 65.046875 C 286.027344 59.15625 289.101562 53.265625 294.742188 50.960938 L 424.492188 2.046875 C 430.132812 0 436.542969 2.5625 439.105469 7.9375 L 547.828125 237.902344 C 548.085938 238.160156 548.085938 238.414062 548.085938 238.671875 C 558.597656 266.839844 559.109375 296.804688 549.109375 323.4375 C 538.851562 350.582031 519.367188 370.8125 493.722656 380.542969 C 483.46875 384.382812 472.699219 386.433594 461.671875 386.433594 Z M 381.15625 302.4375 C 389.875 324.972656 405.515625 343.410156 425.773438 353.910156 C 445.515625 364.410156 466.800781 366.203125 486.03125 358.777344 C 505.261719 351.605469 520.132812 335.984375 527.828125 315.242188 C 535.777344 293.984375 535.519531 269.914062 527.058594 247.121094 L 423.210938 27.144531 L 313.460938 68.632812 Z M 381.15625 302.4375 "/>
<path style=" stroke:none;fill-rule:nonzero;fill:#a1496b;fill-opacity:1;" d="M 592.957031 652.761719 C 588.34375 652.761719 583.984375 649.945312 582.1875 645.335938 L 479.109375 373.628906 C 476.800781 367.738281 479.878906 361.082031 485.773438 358.777344 C 491.671875 356.472656 498.339844 359.542969 500.648438 365.433594 L 603.726562 637.140625 C 606.035156 643.03125 602.957031 649.6875 597.058594 651.992188 C 595.519531 652.761719 594.238281 652.761719 592.957031 652.761719 Z M 592.957031 652.761719 "/>
<path style=" stroke:none;fill-rule:nonzero;fill:#a1496b;fill-opacity:1;" d="M 533.980469 675.042969 C 529.367188 675.042969 525.007812 672.222656 523.210938 667.613281 C 520.902344 661.726562 523.980469 655.066406 529.878906 652.761719 L 647.316406 608.203125 C 653.214844 605.898438 659.882812 608.972656 662.191406 614.859375 C 664.496094 620.75 661.421875 627.410156 655.523438 629.714844 L 538.082031 674.273438 C 536.800781 674.785156 535.519531 675.042969 533.980469 675.042969 Z M 533.980469 675.042969 "/>
<path style=" stroke:none;fill-rule:nonzero;fill:#a1496b;fill-opacity:1;" d="M 450.390625 333.933594 C 450.132812 333.933594 449.621094 333.933594 449.363281 333.933594 C 401.925781 329.324219 380.386719 219.722656 376.542969 197.953125 C 375.515625 191.808594 379.617188 185.660156 386.027344 184.636719 C 392.4375 183.613281 398.335938 187.710938 399.363281 194.113281 C 409.105469 248.914062 431.671875 309.351562 451.671875 311.144531 C 458.082031 311.65625 462.699219 317.289062 461.929688 323.691406 C 461.160156 329.582031 456.285156 333.933594 450.390625 333.933594 Z M 450.390625 333.933594 "/>
</g>
</svg>
