<?xml version="1.0" encoding="UTF-8"?>
<svg xmlns="http://www.w3.org/2000/svg" xmlns:xlink="http://www.w3.org/1999/xlink" width="768pt" height="767.999994pt" viewBox="0 0 768 767.999994" version="1.2">
<defs>
<clipPath id="clip1">
  <path d="M 15 51 L 567 51 L 567 442 L 15 442 Z M 15 51 "/>
</clipPath>
<clipPath id="clip2">
  <path d="M 18.421875 37.125 L 581.800781 63.566406 L 563.375 456.136719 L -0.00390625 429.695312 Z M 18.421875 37.125 "/>
</clipPath>
<clipPath id="clip3">
  <path d="M 18.421875 37.125 L 581.800781 63.566406 L 563.375 456.136719 L -0.00390625 429.695312 Z M 18.421875 37.125 "/>
</clipPath>
<clipPath id="clip4">
  <path d="M 3 39 L 579 39 L 579 454 L 3 454 Z M 3 39 "/>
</clipPath>
<clipPath id="clip5">
  <path d="M 18.421875 37.125 L 581.800781 63.566406 L 563.375 456.136719 L -0.00390625 429.695312 Z M 18.421875 37.125 "/>
</clipPath>
<clipPath id="clip6">
  <path d="M 18.421875 37.125 L 581.800781 63.566406 L 563.375 456.136719 L -0.00390625 429.695312 Z M 18.421875 37.125 "/>
</clipPath>
<clipPath id="clip7">
  <path d="M 26 236 L 540 236 L 540 442 L 26 442 Z M 26 236 "/>
</clipPath>
<clipPath id="clip8">
  <path d="M 18.421875 37.125 L 581.800781 63.566406 L 563.375 456.136719 L -0.00390625 429.695312 Z M 18.421875 37.125 "/>
</clipPath>
<clipPath id="clip9">
  <path d="M 18.421875 37.125 L 581.800781 63.566406 L 563.375 456.136719 L -0.00390625 429.695312 Z M 18.421875 37.125 "/>
</clipPath>
<clipPath id="clip10">
  <path d="M 14 224 L 552 224 L 552 454 L 14 454 Z M 14 224 "/>
</clipPath>
<clipPath id="clip11">
  <path d="M 18.421875 37.125 L 581.800781 63.566406 L 563.375 456.136719 L -0.00390625 429.695312 Z M 18.421875 37.125 "/>
</clipPath>
<clipPath id="clip12">
  <path d="M 18.421875 37.125 L 581.800781 63.566406 L 563.375 456.136719 L -0.00390625 429.695312 Z M 18.421875 37.125 "/>
</clipPath>
<clipPath id="clip13">
  <path d="M 42 52 L 556 52 L 556 318 L 42 318 Z M 42 52 "/>
</clipPath>
<clipPath id="clip14">
  <path d="M 18.421875 37.125 L 581.800781 63.566406 L 563.375 456.136719 L -0.00390625 429.695312 Z M 18.421875 37.125 "/>
</clipPath>
<clipPath id="clip15">
  <path d="M 18.421875 37.125 L 581.800781 63.566406 L 563.375 456.136719 L -0.00390625 429.695312 Z M 18.421875 37.125 "/>
</clipPath>
<clipPath id="clip16">
  <path d="M 29 39 L 568 39 L 568 330 L 29 330 Z M 29 39 "/>
</clipPath>
<clipPath id="clip17">
  <path d="M 18.421875 37.125 L 581.800781 63.566406 L 563.375 456.136719 L -0.00390625 429.695312 Z M 18.421875 37.125 "/>
</clipPath>
<clipPath id="clip18">
  <path d="M 18.421875 37.125 L 581.800781 63.566406 L 563.375 456.136719 L -0.00390625 429.695312 Z M 18.421875 37.125 "/>
</clipPath>
<clipPath id="clip19">
  <path d="M 178 247 L 742 247 L 742 706 L 178 706 Z M 178 247 "/>
</clipPath>
<clipPath id="clip20">
  <path d="M 151.707031 377.339844 L 659.328125 221.515625 L 767.832031 574.988281 L 260.210938 730.808594 Z M 151.707031 377.339844 "/>
</clipPath>
<clipPath id="clip21">
  <path d="M 151.707031 377.339844 L 659.328125 221.515625 L 767.832031 574.988281 L 260.210938 730.808594 Z M 151.707031 377.339844 "/>
</clipPath>
<clipPath id="clip22">
  <path d="M 166 235 L 754 235 L 754 717 L 166 717 Z M 166 235 "/>
</clipPath>
<clipPath id="clip23">
  <path d="M 151.707031 377.339844 L 659.328125 221.515625 L 767.832031 574.988281 L 260.210938 730.808594 Z M 151.707031 377.339844 "/>
</clipPath>
<clipPath id="clip24">
  <path d="M 151.707031 377.339844 L 659.328125 221.515625 L 767.832031 574.988281 L 260.210938 730.808594 Z M 151.707031 377.339844 "/>
</clipPath>
<clipPath id="clip25">
  <path d="M 274 463 L 739 463 L 739 705 L 274 705 Z M 274 463 "/>
</clipPath>
<clipPath id="clip26">
  <path d="M 151.707031 377.339844 L 659.328125 221.515625 L 767.832031 574.988281 L 260.210938 730.808594 Z M 151.707031 377.339844 "/>
</clipPath>
<clipPath id="clip27">
  <path d="M 151.707031 377.339844 L 659.328125 221.515625 L 767.832031 574.988281 L 260.210938 730.808594 Z M 151.707031 377.339844 "/>
</clipPath>
<clipPath id="clip28">
  <path d="M 262 452 L 750 452 L 750 716 L 262 716 Z M 262 452 "/>
</clipPath>
<clipPath id="clip29">
  <path d="M 151.707031 377.339844 L 659.328125 221.515625 L 767.832031 574.988281 L 260.210938 730.808594 Z M 151.707031 377.339844 "/>
</clipPath>
<clipPath id="clip30">
  <path d="M 151.707031 377.339844 L 659.328125 221.515625 L 767.832031 574.988281 L 260.210938 730.808594 Z M 151.707031 377.339844 "/>
</clipPath>
<clipPath id="clip31">
  <path d="M 182 246 L 645 246 L 645 541 L 182 541 Z M 182 246 "/>
</clipPath>
<clipPath id="clip32">
  <path d="M 151.707031 377.339844 L 659.328125 221.515625 L 767.832031 574.988281 L 260.210938 730.808594 Z M 151.707031 377.339844 "/>
</clipPath>
<clipPath id="clip33">
  <path d="M 151.707031 377.339844 L 659.328125 221.515625 L 767.832031 574.988281 L 260.210938 730.808594 Z M 151.707031 377.339844 "/>
</clipPath>
<clipPath id="clip34">
  <path d="M 171 235 L 656 235 L 656 553 L 171 553 Z M 171 235 "/>
</clipPath>
<clipPath id="clip35">
  <path d="M 151.707031 377.339844 L 659.328125 221.515625 L 767.832031 574.988281 L 260.210938 730.808594 Z M 151.707031 377.339844 "/>
</clipPath>
<clipPath id="clip36">
  <path d="M 151.707031 377.339844 L 659.328125 221.515625 L 767.832031 574.988281 L 260.210938 730.808594 Z M 151.707031 377.339844 "/>
</clipPath>
</defs>
<g id="surface1">
<g clip-path="url(#clip1)" clip-rule="nonzero">
<g clip-path="url(#clip2)" clip-rule="nonzero">
<g clip-path="url(#clip3)" clip-rule="nonzero">
<path style=" stroke:none;fill-rule:nonzero;fill:rgb(100%,100%,100%);fill-opacity:1;" d="M 553.289062 395.6875 C 552.046875 422.09375 529.652344 442.488281 503.273438 441.25 L 61.441406 420.515625 C 35.066406 419.277344 14.679688 396.871094 15.917969 370.464844 L 28.726562 97.59375 C 29.964844 71.1875 52.363281 50.78125 78.738281 52.019531 L 520.570312 72.753906 C 546.945312 73.992188 567.332031 96.40625 566.09375 122.8125 L 553.289062 395.6875 "/>
</g>
</g>
</g>
<g clip-path="url(#clip4)" clip-rule="nonzero">
<g clip-path="url(#clip5)" clip-rule="nonzero">
<g clip-path="url(#clip6)" clip-rule="nonzero">
<path style=" stroke:none;fill-rule:nonzero;fill:#a1496b;fill-opacity:1;" d="M 553.289062 395.6875 L 541.230469 395.121094 C 540.757812 405.027344 536.367188 413.707031 529.582031 419.90625 C 522.777344 426.089844 513.734375 429.648438 503.839844 429.1875 L 62.007812 408.449219 C 52.109375 407.984375 43.445312 403.59375 37.25 396.800781 C 31.074219 389.992188 27.515625 380.941406 27.972656 371.03125 L 40.78125 98.15625 C 41.253906 88.25 45.644531 79.574219 52.433594 73.371094 C 59.234375 67.179688 68.269531 63.628906 78.171875 64.085938 L 520.003906 84.820312 C 529.894531 85.292969 538.566406 89.679688 544.761719 96.480469 C 550.9375 103.289062 554.496094 112.339844 554.039062 122.246094 L 541.230469 395.121094 L 565.335938 396.25 L 578.140625 123.378906 C 578.925781 106.882812 572.902344 91.527344 562.609375 80.21875 C 552.332031 68.894531 537.613281 61.464844 521.136719 60.699219 L 79.304688 39.960938 C 62.820312 39.179688 47.476562 45.199219 36.183594 55.511719 C 24.867188 65.804688 17.441406 80.527344 16.675781 97.027344 L 3.871094 369.898438 C 3.085938 386.398438 9.101562 401.75 19.402344 413.050781 C 29.679688 424.378906 44.390625 431.804688 60.875 432.578125 L 502.707031 453.316406 C 519.183594 454.089844 534.535156 448.074219 545.828125 437.761719 C 557.136719 427.472656 564.570312 412.75 565.335938 396.25 L 553.289062 395.6875 "/>
</g>
</g>
</g>
<g clip-path="url(#clip7)" clip-rule="nonzero">
<g clip-path="url(#clip8)" clip-rule="nonzero">
<g clip-path="url(#clip9)" clip-rule="nonzero">
<path style=" stroke:none;fill-rule:nonzero;fill:rgb(100%,100%,100%);fill-opacity:1;" d="M 261.953125 244.835938 C 205.589844 278.804688 97.359375 351 26.488281 400.136719 C 34.6875 411.914062 48.074219 419.886719 63.503906 420.609375 L 505.335938 441.347656 C 518.519531 441.96875 530.71875 437.175781 539.769531 428.929688 C 449.507812 358.847656 368.058594 281.050781 324.800781 247.785156 C 307.871094 234.757812 284.148438 231.445312 261.953125 244.835938 "/>
</g>
</g>
</g>
<g clip-path="url(#clip10)" clip-rule="nonzero">
<g clip-path="url(#clip11)" clip-rule="nonzero">
<g clip-path="url(#clip12)" clip-rule="nonzero">
<path style=" stroke:none;fill-rule:nonzero;fill:#a1496b;fill-opacity:1;" d="M 261.953125 244.835938 L 255.730469 234.488281 C 227.257812 251.652344 186.050781 278.234375 143.007812 306.722656 C 99.964844 335.210938 55.136719 365.585938 19.613281 390.210938 C 16.972656 392.046875 15.1875 394.816406 14.617188 398 C 14.039062 401.171875 14.746094 404.390625 16.589844 407.042969 C 21.71875 414.410156 28.457031 420.578125 36.355469 425.035156 C 44.246094 429.496094 53.308594 432.226562 62.9375 432.675781 L 504.769531 453.414062 C 521.246094 454.1875 536.597656 448.175781 547.890625 437.855469 C 550.535156 435.449219 551.960938 432.035156 551.824219 428.457031 C 551.679688 424.878906 549.988281 421.582031 547.164062 419.390625 C 502.347656 384.597656 459.59375 347.777344 422.59375 315.453125 C 404.089844 299.292969 387.027344 284.246094 371.824219 271.121094 C 356.617188 257.992188 343.308594 246.789062 332.148438 238.210938 C 321.515625 230.015625 308.5 224.914062 294.582031 224.261719 C 281.769531 223.644531 268.277344 226.894531 255.722656 234.488281 L 255.730469 234.488281 L 261.953125 244.835938 L 268.183594 255.175781 C 276.898438 249.9375 285.394531 248.03125 293.449219 248.390625 C 302.171875 248.800781 310.460938 251.992188 317.441406 257.355469 C 327.910156 265.410156 341.003906 276.40625 356.054688 289.40625 C 378.65625 308.925781 405.714844 332.96875 435.613281 358.742188 C 465.523438 384.507812 498.285156 412.011719 532.371094 438.472656 L 539.769531 428.929688 L 531.644531 420.003906 C 524.839844 426.1875 515.796875 429.746094 505.902344 429.28125 L 64.070312 408.546875 C 58.261719 408.273438 52.921875 406.65625 48.210938 404 C 43.511719 401.347656 39.457031 397.644531 36.390625 393.238281 L 26.488281 400.136719 L 33.355469 410.066406 C 68.703125 385.558594 113.425781 355.257812 156.3125 326.871094 C 199.191406 298.492188 240.285156 271.988281 268.175781 255.175781 L 268.183594 255.175781 L 261.953125 244.835938 "/>
</g>
</g>
</g>
<g clip-path="url(#clip13)" clip-rule="nonzero">
<g clip-path="url(#clip14)" clip-rule="nonzero">
<g clip-path="url(#clip15)" clip-rule="nonzero">
<path style=" stroke:none;fill-rule:nonzero;fill:rgb(100%,100%,100%);fill-opacity:1;" d="M 259.105469 305.476562 C 206.175781 266.367188 117.808594 162.65625 42.027344 69.042969 C 51.292969 58.078125 65.367188 51.390625 80.800781 52.117188 L 522.632812 72.851562 C 535.816406 73.472656 547.511719 79.390625 555.75 88.449219 C 465.140625 177.960938 368.136719 279.351562 321.953125 308.425781 C 303.878906 319.804688 279.949219 320.867188 259.105469 305.476562 "/>
</g>
</g>
</g>
<g clip-path="url(#clip16)" clip-rule="nonzero">
<g clip-path="url(#clip17)" clip-rule="nonzero">
<g clip-path="url(#clip18)" clip-rule="nonzero">
<path style=" stroke:none;fill-rule:nonzero;fill:#a1496b;fill-opacity:1;" d="M 259.105469 305.476562 L 266.269531 295.761719 C 253.785156 286.539062 238.640625 273.035156 221.980469 256.597656 C 196.972656 231.925781 168.472656 200.625 139.179688 166.773438 C 109.878906 132.914062 79.765625 96.476562 51.40625 61.441406 L 42.027344 69.042969 L 51.238281 76.835938 C 54.707031 72.734375 59.089844 69.429688 64.019531 67.21875 C 68.957031 65.019531 74.425781 63.910156 80.234375 64.179688 L 522.066406 84.917969 C 531.949219 85.382812 540.628906 89.785156 546.824219 96.578125 L 555.75 88.449219 L 547.269531 79.851562 C 501.882812 124.695312 454.992188 172.410156 413.785156 212.433594 C 393.195312 232.445312 374.019531 250.527344 357.246094 265.320312 C 348.867188 272.703125 341.082031 279.269531 334.0625 284.816406 C 327.042969 290.367188 320.773438 294.902344 315.523438 298.203125 C 308.070312 302.894531 299.523438 305.289062 290.800781 304.878906 C 282.753906 304.484375 274.464844 301.789062 266.269531 295.761719 L 251.941406 315.1875 C 263.722656 323.921875 276.851562 328.425781 289.667969 329.007812 C 303.582031 329.660156 317.011719 325.800781 328.375 318.648438 C 334.671875 314.679688 341.535156 309.683594 349.019531 303.777344 C 362.09375 293.429688 377.054688 280.285156 393.460938 265.09375 C 418.0625 242.316406 445.898438 214.980469 475.015625 185.984375 C 504.144531 156.992188 534.550781 126.355469 564.222656 97.046875 C 568.835938 92.484375 569.035156 85.121094 564.671875 80.324219 C 554.394531 69 539.675781 61.558594 523.199219 60.796875 L 81.367188 40.058594 C 71.734375 39.597656 62.460938 41.46875 54.183594 45.175781 C 45.902344 48.875 38.617188 54.382812 32.820312 61.246094 C 29.074219 65.671875 29.007812 72.136719 32.652344 76.648438 C 70.613281 123.539062 111.753906 173.003906 150.160156 215.769531 C 169.367188 237.15625 187.886719 256.871094 205.039062 273.796875 C 222.210938 290.730469 237.964844 304.855469 251.941406 315.1875 L 259.105469 305.476562 "/>
</g>
</g>
</g>
<g clip-path="url(#clip19)" clip-rule="nonzero">
<g clip-path="url(#clip20)" clip-rule="nonzero">
<g clip-path="url(#clip21)" clip-rule="nonzero">
<path style=" stroke:none;fill-rule:nonzero;fill:rgb(100%,100%,100%);fill-opacity:1;" d="M 739.667969 524.671875 C 746.964844 548.449219 733.605469 573.632812 709.839844 580.929688 L 311.742188 703.132812 C 287.976562 710.425781 262.789062 697.074219 255.488281 673.296875 L 180.066406 427.601562 C 172.769531 403.824219 186.128906 378.628906 209.890625 371.335938 L 607.988281 249.132812 C 631.753906 241.835938 656.949219 255.199219 664.246094 278.972656 L 739.667969 524.671875 "/>
</g>
</g>
</g>
<g clip-path="url(#clip22)" clip-rule="nonzero">
<g clip-path="url(#clip23)" clip-rule="nonzero">
<g clip-path="url(#clip24)" clip-rule="nonzero">
<path style=" stroke:none;fill-rule:nonzero;fill:#a1496b;fill-opacity:1;" d="M 739.667969 524.671875 L 728.804688 528.003906 C 731.535156 536.929688 730.40625 546.007812 726.363281 553.660156 C 722.300781 561.296875 715.417969 567.328125 706.503906 570.066406 L 308.410156 692.269531 C 299.488281 695.007812 290.417969 693.871094 282.765625 689.828125 C 275.128906 685.765625 269.097656 678.882812 266.351562 669.964844 L 190.929688 424.265625 C 188.199219 415.34375 189.328125 406.261719 193.371094 398.613281 C 197.433594 390.964844 204.308594 384.945312 213.226562 382.199219 L 611.324219 259.996094 C 620.238281 257.269531 629.316406 258.390625 636.96875 262.441406 C 644.605469 266.507812 650.636719 273.390625 653.382812 282.308594 L 728.804688 528.003906 L 750.523438 521.339844 L 675.101562 275.640625 C 670.546875 260.785156 660.332031 249.105469 647.613281 242.367188 C 634.90625 235.605469 619.5 233.710938 604.65625 238.277344 L 206.558594 360.480469 C 191.707031 365.03125 180.023438 375.242188 173.296875 387.964844 C 166.542969 400.679688 164.644531 416.082031 169.214844 430.933594 L 244.632812 676.628906 C 249.1875 691.488281 259.398438 703.171875 272.121094 709.898438 C 284.828125 716.65625 300.226562 718.554688 315.078125 713.996094 L 713.175781 591.792969 C 728.019531 587.234375 739.710938 577.023438 746.4375 564.300781 C 753.183594 551.59375 755.089844 536.191406 750.523438 521.339844 L 739.667969 524.671875 "/>
</g>
</g>
</g>
<g clip-path="url(#clip25)" clip-rule="nonzero">
<g clip-path="url(#clip26)" clip-rule="nonzero">
<g clip-path="url(#clip27)" clip-rule="nonzero">
<path style=" stroke:none;fill-rule:nonzero;fill:rgb(100%,100%,100%);fill-opacity:1;" d="M 433.550781 483.78125 C 394.410156 531.792969 321.460938 630.152344 274.292969 696.207031 C 285.300781 704.027344 299.699219 706.828125 313.601562 702.5625 L 711.699219 580.359375 C 723.578125 576.710938 732.863281 568.589844 738.261719 558.40625 C 635.992188 525.066406 539.085938 482.09375 490.175781 466.402344 C 471.03125 460.25 448.957031 464.867188 433.550781 483.78125 "/>
</g>
</g>
</g>
<g clip-path="url(#clip28)" clip-rule="nonzero">
<g clip-path="url(#clip29)" clip-rule="nonzero">
<g clip-path="url(#clip30)" clip-rule="nonzero">
<path style=" stroke:none;fill-rule:nonzero;fill:#a1496b;fill-opacity:1;" d="M 433.550781 483.78125 L 424.746094 476.597656 C 404.976562 500.855469 376.914062 537.503906 347.832031 576.421875 C 318.75 615.34375 288.6875 656.5 265.042969 689.609375 C 263.285156 692.074219 262.585938 695.09375 263.09375 698.09375 C 263.589844 701.085938 265.238281 703.710938 267.714844 705.472656 C 274.605469 710.367188 282.535156 713.683594 290.953125 715.117188 C 299.363281 716.554688 308.257812 716.089844 316.9375 713.425781 L 715.035156 591.222656 C 729.878906 586.664062 741.570312 576.460938 748.292969 563.730469 C 749.871094 560.753906 750.050781 557.28125 748.792969 554.152344 C 747.527344 551.03125 744.976562 548.652344 741.777344 547.609375 C 691.003906 531.058594 641.410156 512.054688 598.347656 495.207031 C 576.8125 486.785156 556.910156 478.890625 539.261719 472.101562 C 521.617188 465.316406 506.257812 459.628906 493.644531 455.582031 C 481.617188 451.710938 468.460938 451.332031 455.921875 455.183594 C 444.371094 458.710938 433.449219 465.882812 424.738281 476.601562 L 424.746094 476.597656 L 433.550781 483.78125 L 442.359375 490.957031 C 448.417969 483.542969 455.335938 479.152344 462.589844 476.910156 C 470.449219 474.5 478.808594 474.6875 486.699219 477.214844 C 498.539062 481.015625 513.636719 486.585938 531.105469 493.308594 C 557.335938 503.402344 588.960938 516.085938 623.652344 529.394531 C 658.34375 542.695312 696.121094 556.625 734.738281 569.210938 L 738.261719 558.40625 L 728.21875 553.089844 C 724.15625 560.726562 717.277344 566.757812 708.363281 569.496094 L 310.265625 691.699219 C 305.03125 693.304688 299.785156 693.570312 294.769531 692.71875 C 289.757812 691.867188 284.988281 689.878906 280.871094 686.949219 L 274.292969 696.207031 L 283.535156 702.816406 C 307.0625 669.871094 337.054688 628.808594 366.027344 590.03125 C 395 551.261719 422.984375 514.71875 442.351562 490.960938 L 442.359375 490.957031 L 433.550781 483.78125 "/>
</g>
</g>
</g>
<g clip-path="url(#clip31)" clip-rule="nonzero">
<g clip-path="url(#clip32)" clip-rule="nonzero">
<g clip-path="url(#clip33)" clip-rule="nonzero">
<path style=" stroke:none;fill-rule:nonzero;fill:rgb(100%,100%,100%);fill-opacity:1;" d="M 450.308594 538.382812 C 390.972656 520.59375 279.691406 456.871094 182.777344 398.085938 C 187.5 385.429688 197.847656 375.035156 211.75 370.765625 L 609.847656 248.5625 C 621.726562 244.914062 633.972656 246.4375 644.152344 251.835938 C 592.328125 359.921875 538.613281 480.5625 506.9375 521 C 494.539062 536.828125 473.675781 545.382812 450.308594 538.382812 "/>
</g>
</g>
</g>
<g clip-path="url(#clip34)" clip-rule="nonzero">
<g clip-path="url(#clip35)" clip-rule="nonzero">
<g clip-path="url(#clip36)" clip-rule="nonzero">
<path style=" stroke:none;fill-rule:nonzero;fill:#a1496b;fill-opacity:1;" d="M 450.308594 538.382812 L 453.570312 527.503906 C 439.574219 523.308594 421.859375 516.167969 401.871094 506.914062 C 371.867188 493.023438 336.660156 474.375 299.941406 453.71875 C 263.210938 433.058594 224.9375 410.375 188.671875 388.375 L 182.777344 398.085938 L 193.417969 402.058594 C 195.1875 397.324219 198.015625 393.003906 201.683594 389.480469 C 205.359375 385.960938 209.851562 383.234375 215.085938 381.628906 L 613.183594 259.425781 C 622.089844 256.691406 631.175781 257.828125 638.828125 261.871094 L 644.152344 251.835938 L 633.90625 246.921875 C 607.945312 301.070312 581.570312 358.238281 557.785156 406.789062 C 545.902344 431.054688 534.664062 453.167969 524.5 471.601562 C 519.425781 480.808594 514.617188 489.097656 510.160156 496.246094 C 505.707031 503.390625 501.589844 509.402344 497.988281 513.992188 C 492.878906 520.519531 486.0625 525.359375 478.203125 527.769531 C 470.945312 529.980469 462.75 530.230469 453.570312 527.503906 L 447.050781 549.261719 C 460.269531 553.25 473.332031 553.058594 484.875 549.5 C 497.414062 545.648438 508.082031 537.957031 515.878906 528.011719 C 520.195312 522.492188 524.6875 515.882812 529.441406 508.273438 C 537.734375 494.953125 546.8125 478.550781 556.519531 459.882812 C 571.074219 431.886719 587.046875 398.828125 603.628906 363.882812 C 620.222656 328.949219 637.421875 292.148438 654.394531 256.753906 C 657.027344 251.246094 654.867188 244.664062 649.472656 241.800781 C 636.765625 235.042969 621.359375 233.140625 606.515625 237.707031 L 208.417969 359.910156 C 199.738281 362.566406 192.113281 367.171875 185.960938 373.085938 C 179.796875 378.996094 175.09375 386.195312 172.136719 394.117188 C 170.230469 399.226562 172.226562 404.972656 176.890625 407.808594 C 225.4375 437.25 277.617188 467.960938 325.25 493.609375 C 349.066406 506.4375 371.75 518.003906 392.332031 527.535156 C 412.929688 537.066406 431.378906 544.558594 447.050781 549.261719 L 450.308594 538.382812 "/>
</g>
</g>
</g>
</g>
</svg>
