<?xml version="1.0" encoding="UTF-8"?>
<svg xmlns="http://www.w3.org/2000/svg" xmlns:xlink="http://www.w3.org/1999/xlink" width="768pt" height="767.999994pt" viewBox="0 0 768 767.999994" version="1.2">
<defs>
<clipPath id="clip1">
  <path d="M 0 12.960938 L 768 12.960938 L 768 754.710938 L 0 754.710938 Z M 0 12.960938 "/>
</clipPath>
</defs>
<g id="surface1">
<g clip-path="url(#clip1)" clip-rule="nonzero">
<path style=" stroke:none;fill-rule:nonzero;fill:rgb(67.059326%,37.249756%,38.819885%);fill-opacity:1;" d="M 51.34375 327.382812 L 31.054688 307.101562 L 51.34375 286.820312 Z M 76.933594 204.792969 L 639.890625 204.792969 L 639.890625 404.117188 L 583.414062 460.566406 L 491.652344 460.566406 L 466.0625 434.988281 L 550.328125 434.988281 C 557.375 434.988281 563.121094 429.246094 563.121094 422.203125 C 563.121094 401.019531 580.316406 383.835938 601.503906 383.835938 C 608.550781 383.835938 614.300781 378.089844 614.300781 371.046875 L 614.300781 294.3125 C 614.300781 287.269531 608.550781 281.523438 601.503906 281.523438 C 580.316406 281.523438 563.121094 264.339844 563.121094 243.160156 C 563.121094 236.113281 557.375 230.371094 550.328125 230.371094 L 166.496094 230.371094 C 159.449219 230.371094 153.699219 236.113281 153.699219 243.160156 C 153.699219 264.339844 136.507812 281.523438 115.316406 281.523438 C 108.269531 281.523438 102.523438 287.269531 102.523438 294.3125 L 102.523438 371.046875 C 102.523438 378.089844 108.269531 383.835938 115.316406 383.835938 C 136.507812 383.835938 153.699219 401.019531 153.699219 422.203125 C 153.699219 429.246094 159.449219 434.988281 166.496094 434.988281 L 301.9375 434.988281 L 276.347656 460.566406 L 184.585938 460.566406 L 76.933594 352.960938 Z M 128.109375 153.636719 L 691.066406 153.636719 L 691.066406 352.960938 L 665.476562 378.539062 L 665.476562 192.003906 C 665.476562 184.960938 659.730469 179.214844 652.683594 179.214844 L 128.109375 179.214844 Z M 273.496094 64.765625 C 290.441406 47.828125 312.929688 38.539062 336.820312 38.539062 L 431.179688 38.539062 C 455.070312 38.539062 477.558594 47.828125 494.503906 64.765625 L 557.824219 128.058594 L 210.175781 128.058594 Z M 736.945312 307.101562 L 716.65625 327.382812 L 716.65625 286.820312 Z M 537.535156 506.425781 L 517.242188 486.144531 L 557.824219 486.144531 Z M 742.246094 337.976562 L 742.246094 711.046875 L 555.625 524.511719 Z M 345.617188 271.082031 C 330.773438 276.378906 320.027344 290.46875 320.027344 307.101562 C 320.027344 328.285156 337.21875 345.46875 358.410156 345.46875 C 365.457031 345.46875 371.207031 351.214844 371.207031 358.257812 C 371.207031 365.300781 365.457031 371.046875 358.410156 371.046875 C 351.363281 371.046875 345.617188 365.300781 345.617188 358.257812 L 320.027344 358.257812 C 320.027344 374.894531 330.773438 388.980469 345.617188 394.277344 L 345.617188 407.363281 C 343.71875 408.015625 341.867188 408.664062 339.96875 409.414062 L 177.988281 409.414062 C 172.890625 384.382812 153.148438 364.652344 128.109375 359.554688 L 128.109375 305.804688 C 153.148438 300.707031 172.890625 280.976562 177.988281 255.945312 L 345.617188 255.945312 Z M 428.03125 409.414062 C 409.9375 401.96875 390.347656 399.371094 371.207031 401.46875 L 371.207031 394.277344 C 386.050781 388.980469 396.792969 374.894531 396.792969 358.257812 C 396.792969 337.074219 379.601562 319.890625 358.410156 319.890625 C 351.363281 319.890625 345.617188 314.144531 345.617188 307.101562 C 345.617188 300.058594 351.363281 294.3125 358.410156 294.3125 C 365.457031 294.3125 371.207031 300.058594 371.207031 307.101562 L 396.792969 307.101562 C 396.792969 290.46875 386.050781 276.378906 371.207031 271.082031 L 371.207031 255.945312 L 538.832031 255.945312 C 543.929688 280.976562 563.671875 300.707031 588.710938 305.804688 L 588.710938 359.554688 C 563.671875 364.652344 543.929688 384.382812 538.832031 409.414062 Z M 43.847656 729.132812 L 320.675781 452.425781 C 355.613281 417.554688 412.4375 417.554688 447.324219 452.425781 L 724.152344 729.132812 Z M 230.464844 506.425781 L 210.175781 486.144531 L 250.757812 486.144531 Z M 212.375 524.511719 L 25.753906 711.046875 L 25.753906 337.976562 Z M 1.117188 746.816406 C 1.117188 746.816406 1.167969 746.867188 1.167969 746.867188 C 1.214844 746.964844 1.265625 747.066406 1.367188 747.167969 C 1.914062 748.414062 2.714844 749.566406 3.613281 750.5625 C 3.914062 750.863281 4.265625 751.164062 4.613281 751.414062 C 5.414062 752.164062 6.3125 752.761719 7.261719 753.210938 C 7.664062 753.410156 8.0625 753.660156 8.464844 753.8125 C 9.914062 754.359375 11.363281 754.710938 12.960938 754.710938 L 755.039062 754.710938 C 756.589844 754.710938 758.085938 754.359375 759.488281 753.8125 C 759.9375 753.660156 760.335938 753.410156 760.738281 753.210938 C 761.6875 752.761719 762.585938 752.164062 763.386719 751.414062 C 763.734375 751.113281 764.085938 750.863281 764.335938 750.5625 C 765.285156 749.566406 766.085938 748.464844 766.632812 747.167969 C 766.683594 747.066406 766.785156 746.964844 766.832031 746.867188 C 766.832031 746.816406 766.832031 746.816406 766.832031 746.816406 C 767.433594 745.367188 767.683594 743.871094 767.734375 742.371094 C 767.734375 742.222656 767.832031 742.070312 767.832031 741.921875 L 767.832031 307.101562 C 767.832031 305.554688 767.484375 304.105469 766.933594 302.707031 C 766.785156 302.257812 766.585938 301.90625 766.433594 301.558594 C 765.882812 300.507812 765.285156 299.558594 764.535156 298.710938 C 764.335938 298.511719 764.285156 298.261719 764.085938 298.058594 L 716.65625 250.652344 L 716.65625 140.847656 C 716.65625 133.804688 710.90625 128.058594 703.859375 128.058594 L 594.007812 128.058594 L 512.59375 46.679688 C 490.855469 24.949219 461.917969 12.960938 431.179688 12.960938 L 336.820312 12.960938 C 306.082031 12.960938 277.144531 24.949219 255.40625 46.679688 L 173.992188 128.058594 L 115.316406 128.058594 C 108.269531 128.058594 102.523438 133.804688 102.523438 140.847656 L 102.523438 179.214844 L 64.140625 179.214844 C 57.09375 179.214844 51.34375 184.960938 51.34375 192.003906 L 51.34375 250.652344 L 3.914062 298.058594 C 3.714844 298.261719 3.664062 298.511719 3.464844 298.710938 C 2.714844 299.558594 2.066406 300.507812 1.617188 301.558594 C 1.414062 301.90625 1.214844 302.257812 1.066406 302.707031 C 0.515625 304.105469 0.167969 305.554688 0.167969 307.101562 L 0.167969 741.921875 C 0.167969 742.070312 0.265625 742.222656 0.265625 742.371094 C 0.316406 743.871094 0.566406 745.367188 1.117188 746.816406 "/>
</g>
</g>
</svg>
