<?xml version="1.0" encoding="UTF-8"?>
<svg xmlns="http://www.w3.org/2000/svg" xmlns:xlink="http://www.w3.org/1999/xlink" width="768pt" height="767.999994pt" viewBox="0 0 768 767.999994" version="1.2">
<g id="surface1">
<path style=" stroke:none;fill-rule:nonzero;fill:#a1496b;fill-opacity:1;" d="M 401.472656 329.722656 C 394.296875 328.972656 388.117188 334.007812 387.367188 340.984375 L 385.175781 360.519531 C 384.675781 365.402344 381.339844 369.589844 376.703125 371.183594 L 291.789062 400.734375 C 286.65625 402.527344 283.214844 407.363281 283.214844 412.792969 L 283.214844 526.765625 C 283.214844 530.152344 284.5625 533.34375 286.902344 535.734375 L 356.074219 605.253906 C 358.464844 607.695312 359.761719 610.882812 359.761719 614.273438 L 359.761719 729.089844 C 359.761719 736.117188 354.03125 741.847656 347.003906 741.847656 C 339.976562 741.847656 334.246094 736.117188 334.246094 729.089844 L 334.246094 624.789062 C 334.246094 621.449219 332.898438 618.210938 330.558594 615.816406 L 256.65625 541.464844 C 254.261719 539.074219 251.023438 537.726562 247.632812 537.726562 L 219.429688 537.726562 C 212.402344 537.726562 206.671875 543.457031 206.671875 550.484375 L 206.671875 652.542969 C 206.671875 656.832031 204.578125 660.765625 200.988281 663.160156 L 86.171875 739.703125 C 80.492188 743.492188 72.21875 741.796875 68.480469 736.167969 C 64.59375 730.335938 66.1875 722.363281 72.019531 718.476562 L 175.476562 649.503906 C 179.011719 647.164062 181.15625 643.175781 181.15625 638.890625 L 181.15625 550.484375 C 181.15625 543.457031 175.425781 537.726562 168.398438 537.726562 C 161.371094 537.726562 155.640625 543.457031 155.640625 550.484375 L 155.640625 632.0625 L 57.867188 697.246094 C 40.324219 708.957031 35.542969 732.777344 47.253906 750.320312 C 54.378906 760.984375 66.289062 767.363281 79.097656 767.363281 C 86.671875 767.363281 94.046875 765.121094 100.324219 760.933594 L 215.144531 684.386719 C 225.808594 677.261719 232.1875 665.351562 232.1875 652.542969 L 232.1875 563.242188 L 242.300781 563.242188 L 308.730469 630.070312 L 308.730469 729.089844 C 308.730469 750.21875 325.875 767.363281 347.003906 767.363281 C 368.132812 767.363281 385.277344 750.21875 385.277344 729.089844 L 385.277344 614.273438 C 385.277344 604.105469 381.339844 594.488281 374.164062 587.3125 L 308.730469 521.480469 L 308.730469 421.863281 L 385.078125 395.253906 C 398.929688 390.46875 408.945312 377.910156 410.542969 363.359375 L 412.734375 343.773438 C 413.480469 336.796875 408.449219 330.46875 401.472656 329.722656 "/>
<path style=" stroke:none;fill-rule:nonzero;fill:#a1496b;fill-opacity:1;" d="M 141.390625 486.546875 L 155.640625 475.1875 L 155.640625 499.457031 C 155.640625 506.480469 161.371094 512.210938 168.398438 512.210938 C 175.425781 512.210938 181.15625 506.480469 181.15625 499.457031 L 181.15625 448.773438 C 181.15625 443.890625 178.367188 439.40625 173.929688 437.3125 C 169.542969 435.167969 164.3125 435.71875 160.476562 438.808594 L 125.492188 466.566406 C 122.699219 468.757812 119.164062 469.703125 115.625 469.207031 L 38.878906 457.59375 C 38.183594 457.496094 37.484375 457.34375 36.835938 457.097656 C 30.90625 455.203125 27.269531 449.273438 28.214844 443.09375 C 28.714844 439.703125 30.507812 436.765625 33.25 434.722656 C 35.988281 432.726562 39.328125 431.878906 42.71875 432.378906 L 108.449219 442.34375 C 111.988281 442.792969 115.523438 441.898438 118.316406 439.703125 L 183.847656 387.628906 C 187.484375 386.132812 192.167969 384.6875 193.914062 384.636719 L 206.671875 384.636719 C 213.699219 384.636719 219.429688 378.90625 219.429688 371.878906 L 219.429688 366.5 C 219.429688 361.414062 216.4375 356.832031 211.804688 354.789062 C 193.167969 346.664062 181.15625 328.324219 181.15625 308.09375 C 181.15625 279.9375 204.03125 257.0625 232.1875 257.0625 C 260.34375 257.0625 283.214844 279.9375 283.214844 308.09375 C 283.214844 328.324219 271.207031 346.664062 252.566406 354.789062 C 247.933594 356.832031 244.945312 361.414062 244.945312 366.5 L 244.945312 371.878906 C 244.945312 378.90625 250.675781 384.636719 257.699219 384.636719 L 265.523438 384.636719 C 268.863281 384.636719 272.054688 383.34375 274.394531 381.050781 C 275.789062 379.703125 277.335938 378.757812 279.03125 378.160156 L 353.132812 352.34375 C 357.765625 350.75 361.054688 346.613281 361.605469 341.730469 L 372.617188 242.910156 C 373.367188 235.933594 379.792969 230.800781 386.671875 231.648438 C 393.699219 232.296875 400.027344 227.3125 400.773438 220.335938 C 401.570312 213.359375 396.488281 207.03125 389.511719 206.28125 C 368.480469 203.988281 349.542969 219.140625 347.253906 240.070312 L 337.136719 330.917969 L 299.8125 343.921875 C 305.542969 333.109375 308.730469 320.851562 308.730469 308.09375 C 308.730469 265.882812 274.394531 231.546875 232.1875 231.546875 C 189.976562 231.546875 155.640625 265.882812 155.640625 308.09375 C 155.640625 328.875 164.0625 348.308594 178.316406 362.410156 C 175.523438 363.410156 173.28125 364.355469 172.136719 364.855469 C 171.140625 365.300781 170.191406 365.898438 169.34375 366.546875 L 106.804688 416.28125 L 46.554688 407.164062 C 36.4375 405.667969 26.371094 408.160156 18.101562 414.1875 C 9.878906 420.269531 4.496094 429.140625 2.949219 439.304688 C 0.160156 457.84375 11.074219 475.585938 28.964844 481.367188 C 30.90625 482.011719 33 482.511719 35.09375 482.859375 L 111.835938 494.421875 C 122.300781 496.015625 133.066406 493.175781 141.390625 486.546875 "/>
<path style=" stroke:none;fill-rule:nonzero;fill:#a1496b;fill-opacity:1;" d="M 754.542969 113.09375 C 745.921875 105.816406 734.609375 102.628906 723.398438 104.472656 C 705.210938 107.460938 691.453125 124.253906 691.453125 143.589844 L 691.453125 308.09375 L 659.113281 308.09375 C 674.410156 291 681.636719 267.476562 677.550781 243.609375 C 672.320312 213.160156 648.597656 188.492188 618.5 182.210938 C 595.425781 177.429688 571.902344 183.011719 553.914062 197.660156 C 535.921875 212.261719 525.609375 233.890625 525.609375 257.0625 C 525.609375 269.820312 528.796875 282.078125 534.527344 292.894531 L 497.203125 279.886719 L 487.234375 190.484375 C 485.042969 170.5 468.300781 155.003906 449.113281 155.003906 L 448.714844 155.003906 C 437.851562 155.101562 427.585938 159.835938 420.410156 167.910156 C 413.28125 175.984375 409.84375 186.796875 411.039062 197.511719 L 423.796875 312.328125 C 425.390625 326.878906 435.410156 339.4375 449.261719 344.222656 L 525.609375 370.832031 L 525.609375 470.453125 L 460.175781 536.28125 C 453 543.457031 449.0625 553.078125 449.0625 563.242188 L 449.0625 676.714844 C 449.0625 696.050781 462.816406 712.84375 481.007812 715.832031 C 492.21875 717.628906 503.53125 714.488281 512.101562 707.210938 C 520.675781 699.9375 525.609375 689.320312 525.609375 678.058594 L 525.609375 579.039062 L 592.035156 512.210938 L 602.152344 512.210938 L 602.152344 727.742188 C 602.152344 747.078125 615.90625 763.875 634.097656 766.863281 C 636.1875 767.210938 638.28125 767.363281 640.375 767.363281 C 649.445312 767.363281 658.265625 764.171875 665.242188 758.242188 C 673.765625 750.964844 678.699219 740.351562 678.699219 729.089844 L 678.699219 422.910156 C 678.699219 415.882812 672.964844 410.152344 665.941406 410.152344 C 658.914062 410.152344 653.183594 415.882812 653.183594 422.910156 L 653.183594 729.089844 C 653.183594 732.828125 651.539062 736.367188 648.699219 738.808594 C 645.757812 741.300781 642.019531 742.246094 638.183594 741.648438 C 632.300781 740.699219 627.667969 734.570312 627.667969 727.742188 L 627.667969 499.457031 C 627.667969 492.429688 621.9375 486.699219 614.910156 486.699219 L 586.703125 486.699219 C 583.316406 486.699219 580.078125 488.042969 577.683594 490.433594 L 503.78125 564.789062 C 501.4375 567.179688 500.09375 570.417969 500.09375 573.757812 L 500.09375 678.058594 C 500.09375 681.796875 498.449219 685.335938 495.609375 687.777344 C 492.667969 690.269531 488.929688 691.265625 485.09375 690.617188 C 479.210938 689.671875 474.578125 683.542969 474.578125 676.714844 L 474.578125 563.242188 C 474.578125 559.855469 475.875 556.664062 478.265625 554.222656 L 547.433594 484.703125 C 549.777344 482.3125 551.121094 479.121094 551.121094 475.734375 L 551.121094 361.765625 C 551.121094 356.332031 547.683594 351.5 542.550781 349.703125 L 457.632812 320.152344 C 453 318.558594 449.660156 314.371094 449.164062 309.488281 L 436.40625 194.671875 C 435.957031 191.082031 437.101562 187.542969 439.542969 184.804688 C 441.9375 182.0625 445.324219 180.566406 449.011719 180.519531 C 455.589844 180.917969 461.121094 186.199219 461.921875 193.324219 L 472.734375 290.699219 C 473.28125 295.585938 476.570312 299.722656 481.207031 301.316406 L 555.308594 327.128906 C 557.003906 327.726562 558.546875 328.675781 559.945312 330.019531 C 562.285156 332.3125 565.476562 333.609375 568.8125 333.609375 L 576.636719 333.609375 C 583.664062 333.609375 589.394531 327.878906 589.394531 320.851562 L 589.394531 315.46875 C 589.394531 310.386719 586.40625 305.800781 581.769531 303.757812 C 563.132812 295.632812 551.121094 277.296875 551.121094 257.0625 C 551.121094 241.613281 558 227.164062 570.011719 217.445312 C 582.167969 207.527344 597.519531 203.890625 613.316406 207.230469 C 632.898438 211.316406 648.996094 228.058594 652.386719 247.894531 C 656.421875 271.367188 644.164062 294.339844 622.535156 303.757812 C 617.898438 305.800781 614.910156 310.386719 614.910156 315.46875 L 614.910156 320.851562 C 614.910156 327.878906 620.640625 333.609375 627.667969 333.609375 L 691.453125 333.609375 C 705.507812 333.609375 716.96875 322.144531 716.96875 308.09375 L 716.96875 143.589844 C 716.96875 136.765625 721.605469 130.632812 727.484375 129.6875 C 731.320312 129.089844 735.058594 130.035156 738 132.527344 C 740.839844 134.96875 742.484375 138.507812 742.484375 142.246094 L 742.484375 308.09375 C 742.484375 336.25 719.609375 359.121094 691.453125 359.121094 L 665.941406 359.121094 C 658.914062 359.121094 653.183594 364.855469 653.183594 371.878906 C 653.183594 378.90625 658.914062 384.636719 665.941406 384.636719 L 691.453125 384.636719 C 733.664062 384.636719 768 350.300781 768 308.09375 L 768 142.246094 C 768 130.984375 763.066406 120.367188 754.542969 113.09375 "/>
<path style=" stroke:none;fill-rule:nonzero;fill:#a1496b;fill-opacity:1;" d="M 40.824219 103.972656 C 47.851562 103.972656 53.582031 109.703125 53.582031 116.730469 C 53.582031 123.757812 47.851562 129.488281 40.824219 129.488281 C 33.796875 129.488281 28.066406 123.757812 28.066406 116.730469 C 28.066406 109.703125 33.796875 103.972656 40.824219 103.972656 Z M 79.097656 27.429688 L 155.640625 27.429688 L 155.640625 52.945312 L 79.097656 52.945312 Z M 142.882812 155.003906 C 135.855469 155.003906 130.125 149.273438 130.125 142.246094 C 130.125 135.21875 135.855469 129.488281 142.882812 129.488281 C 149.910156 129.488281 155.640625 135.21875 155.640625 142.246094 C 155.640625 149.273438 149.910156 155.003906 142.882812 155.003906 Z M 40.824219 155.003906 C 61.953125 155.003906 79.097656 137.859375 79.097656 116.730469 L 79.097656 78.457031 L 155.640625 78.457031 L 155.640625 106.316406 C 151.605469 104.921875 147.367188 103.972656 142.882812 103.972656 C 121.753906 103.972656 104.609375 121.117188 104.609375 142.246094 C 104.609375 163.375 121.753906 180.519531 142.882812 180.519531 C 164.011719 180.519531 181.15625 163.375 181.15625 142.246094 L 181.15625 14.671875 C 181.15625 7.644531 175.425781 1.914062 168.398438 1.914062 L 66.339844 1.914062 C 59.3125 1.914062 53.582031 7.644531 53.582031 14.671875 L 53.582031 80.800781 C 49.59375 79.40625 45.308594 78.457031 40.824219 78.457031 C 19.695312 78.457031 2.550781 95.601562 2.550781 116.730469 C 2.550781 137.859375 19.695312 155.003906 40.824219 155.003906 "/>
<path style=" stroke:none;fill-rule:nonzero;fill:#a1496b;fill-opacity:1;" d="M 513.300781 101.632812 C 515.691406 97.84375 519.828125 95.75 524.0625 95.75 C 526.40625 95.75 528.796875 96.398438 530.890625 97.746094 C 533.78125 99.589844 535.773438 102.429688 536.523438 105.765625 C 537.21875 109.054688 536.621094 112.496094 534.777344 115.386719 C 532.984375 118.226562 530.144531 120.21875 526.804688 120.96875 C 523.414062 121.714844 520.027344 121.117188 517.1875 119.273438 C 511.253906 115.484375 509.511719 107.5625 513.300781 101.632812 Z M 618.050781 32.3125 L 661.054688 59.722656 L 647.351562 81.25 L 604.34375 53.789062 Z M 503.480469 140.800781 C 509.710938 144.738281 516.738281 146.78125 523.964844 146.78125 C 526.753906 146.78125 529.542969 146.480469 532.335938 145.882812 C 542.300781 143.691406 550.824219 137.710938 556.304688 129.089844 C 556.304688 129.089844 556.304688 129.089844 556.304688 129.039062 L 590.589844 75.320312 L 644.363281 109.605469 C 646.503906 110.949219 648.898438 111.597656 651.238281 111.597656 C 655.425781 111.597656 659.5625 109.554688 662.003906 105.71875 L 689.460938 62.710938 C 691.253906 59.820312 691.855469 56.382812 691.15625 53.09375 C 690.410156 49.753906 688.414062 46.914062 685.574219 45.070312 L 621.039062 3.90625 C 615.109375 0.121094 607.1875 1.863281 603.398438 7.792969 L 575.988281 50.851562 L 554.113281 85.035156 C 551.472656 81.648438 548.332031 78.609375 544.59375 76.214844 C 526.855469 64.902344 503.132812 70.136719 491.769531 87.925781 C 480.457031 105.71875 485.691406 129.4375 503.480469 140.800781 "/>
<path style=" stroke:none;fill-rule:nonzero;fill:#a1496b;fill-opacity:1;" d="M 284.261719 105.867188 C 286.054688 102.976562 288.945312 100.984375 292.234375 100.285156 C 293.183594 100.085938 294.078125 99.9375 295.027344 99.9375 C 297.417969 99.9375 299.8125 100.632812 301.855469 101.980469 C 307.785156 105.765625 309.527344 113.640625 305.789062 119.570312 C 303.945312 122.460938 301.105469 124.457031 297.765625 125.203125 C 294.429688 125.898438 290.988281 125.300781 288.148438 123.457031 C 285.257812 121.664062 283.316406 118.824219 282.566406 115.484375 C 281.820312 112.144531 282.417969 108.757812 284.261719 105.867188 Z M 257.652344 120.96875 C 259.84375 130.984375 265.824219 139.503906 274.394531 144.988281 C 280.625 148.972656 287.699219 151.015625 294.925781 151.015625 C 297.71875 151.015625 300.507812 150.71875 303.300781 150.070312 C 313.214844 147.925781 321.6875 141.945312 327.21875 133.425781 C 327.21875 133.375 327.269531 133.324219 327.269531 133.324219 L 368.433594 68.789062 C 372.21875 62.859375 370.523438 54.9375 364.542969 51.148438 C 358.613281 47.363281 350.742188 49.105469 346.953125 55.035156 L 325.078125 89.324219 C 322.484375 85.933594 319.394531 82.894531 315.609375 80.453125 C 306.988281 74.96875 296.769531 73.125 286.753906 75.367188 C 276.738281 77.5625 268.265625 83.542969 262.734375 92.164062 C 257.253906 100.734375 255.457031 111 257.652344 120.96875 "/>
<path style=" stroke:none;fill-rule:nonzero;fill:#a1496b;fill-opacity:1;" d="M 436.304688 103.972656 C 443.332031 103.972656 449.0625 98.242188 449.0625 91.214844 L 449.0625 40.1875 C 449.0625 33.160156 443.332031 27.429688 436.304688 27.429688 C 429.277344 27.429688 423.546875 33.160156 423.546875 40.1875 L 423.546875 91.214844 C 423.546875 98.242188 429.277344 103.972656 436.304688 103.972656 "/>
<path style=" stroke:none;fill-rule:nonzero;fill:#a1496b;fill-opacity:1;" d="M 40.824219 257.0625 L 40.824219 295.335938 C 40.824219 302.363281 46.554688 308.09375 53.582031 308.09375 C 60.609375 308.09375 66.339844 302.363281 66.339844 295.335938 L 66.339844 257.0625 C 66.339844 250.035156 60.609375 244.304688 53.582031 244.304688 C 46.554688 244.304688 40.824219 250.035156 40.824219 257.0625 "/>
<path style=" stroke:none;fill-rule:nonzero;fill:#a1496b;fill-opacity:1;" d="M 295.972656 206.035156 C 295.972656 213.058594 301.703125 218.789062 308.730469 218.789062 C 315.757812 218.789062 321.488281 213.058594 321.488281 206.035156 C 321.488281 199.007812 315.757812 193.277344 308.730469 193.277344 C 301.703125 193.277344 295.972656 199.007812 295.972656 206.035156 "/>
<path style=" stroke:none;fill-rule:nonzero;fill:#a1496b;fill-opacity:1;" d="M 244.945312 40.1875 C 251.96875 40.1875 257.699219 34.457031 257.699219 27.429688 C 257.699219 20.402344 251.96875 14.671875 244.945312 14.671875 C 237.917969 14.671875 232.1875 20.402344 232.1875 27.429688 C 232.1875 34.457031 237.917969 40.1875 244.945312 40.1875 "/>
</g>
</svg>
